<svg width="171" height="43" viewBox="0 0 171 43" fill="none" xmlns="http://www.w3.org/2000/svg">
<g clip-path="url(#clip0_2001_816)">
<path d="M130.161 22.9791C130.161 22.1043 130.161 21.2944 130.127 20.5491C130.093 19.8039 130.025 19.0911 129.923 18.4755C129.82 17.8276 129.616 17.2443 129.309 16.6611C129.037 16.0779 128.593 15.5595 128.082 15.0411C127.332 14.3283 126.514 13.8099 125.594 13.4211C124.674 13.0647 123.617 12.8379 122.424 12.8379C121.231 12.8379 120.175 13.0323 119.255 13.4211C118.334 13.7775 117.482 14.3283 116.732 15.0411C116.187 15.5595 115.812 16.0779 115.54 16.6611C115.267 17.2443 115.028 17.8276 114.926 18.4755C114.824 19.1235 114.756 19.8039 114.722 20.5491C114.688 21.2944 114.688 22.1043 114.688 22.9791C114.688 23.8539 114.688 24.6316 114.722 25.4091C114.756 26.1543 114.824 26.8671 114.926 27.4827C115.028 28.1308 115.233 28.714 115.54 29.2971C115.812 29.8803 116.255 30.3987 116.732 30.9171C117.482 31.63 118.3 32.1484 119.255 32.5371C120.175 32.8935 121.231 33.1203 122.424 33.1203C123.617 33.1203 124.64 32.9259 125.594 32.5371C126.514 32.1808 127.366 31.63 128.082 30.9171C128.627 30.3987 129.002 29.8803 129.309 29.2971C129.582 28.714 129.82 28.1308 129.923 27.4827C130.025 26.8347 130.127 26.1543 130.127 25.4091C130.161 24.5992 130.161 23.8539 130.161 22.9791ZM126.105 22.9791C126.105 23.9187 126.105 24.7288 126.071 25.3767C126.037 26.0247 126.003 26.5107 125.901 26.9319C125.833 27.3207 125.73 27.6771 125.594 27.904C125.458 28.1632 125.321 28.4224 125.083 28.6168C124.81 28.9407 124.401 29.1999 123.992 29.3943C123.549 29.5887 123.038 29.6535 122.458 29.6859C121.879 29.6859 121.402 29.5887 120.925 29.3943C120.482 29.1999 120.107 28.9731 119.8 28.6168C119.595 28.4224 119.459 28.1956 119.289 27.904C119.152 27.6447 119.05 27.3207 118.982 26.9319C118.914 26.5431 118.846 26.0247 118.846 25.3767C118.812 24.7288 118.812 23.9511 118.812 22.9791C118.812 22.0395 118.812 21.2296 118.846 20.5815C118.88 19.9335 118.914 19.4475 118.982 19.0263C119.05 18.6051 119.152 18.2811 119.289 18.0544C119.425 17.7952 119.561 17.5359 119.8 17.3415C120.073 17.0175 120.482 16.7583 120.925 16.5639C121.368 16.3695 121.879 16.3047 122.458 16.2723C123.038 16.2723 123.515 16.3695 123.992 16.5639C124.401 16.7583 124.81 16.9851 125.083 17.3415C125.287 17.5359 125.424 17.7628 125.594 18.0544C125.73 18.3135 125.833 18.6375 125.901 19.0263C125.969 19.4151 126.037 19.9335 126.071 20.5815C126.071 21.2296 126.105 22.0395 126.105 22.9791Z" fill="#01BC8D"/>
<path d="M162.712 13.3572C162.712 13.1628 162.542 13.0332 162.372 13.0332H159.03C158.826 13.0332 158.69 13.1952 158.69 13.3572V25.2157L150.476 13.1304C150.408 13.0656 150.374 13.0332 150.271 13.0332H147.136C146.965 13.0332 146.795 13.1952 146.795 13.3572C146.795 19.7724 146.795 26.1876 146.795 32.5381C146.795 32.7324 146.965 32.862 147.136 32.862H150.476C150.68 32.862 150.817 32.7 150.817 32.5381V20.6472L159.03 32.7648C159.099 32.8296 159.133 32.862 159.235 32.862H162.372C162.576 32.862 162.712 32.7 162.712 32.5381V13.3572Z" fill="#01BC8D"/>
<path d="M140.113 13.3572C140.113 13.1628 139.943 13.0332 139.773 13.0332H136.433C136.228 13.0332 136.092 13.1952 136.092 13.3572V32.5381C136.092 32.7324 136.262 32.862 136.433 32.862H139.773C139.977 32.862 140.113 32.7 140.113 32.5381V13.3572Z" fill="#01BC8D"/>
<path d="M99.8291 22.9791C99.8291 22.0395 99.8291 21.2296 99.8632 20.5815C99.8973 19.9335 99.9314 19.4475 99.9995 19.0263C100.306 17.3091 101.704 16.3047 103.476 16.3047C104.635 16.3047 105.657 16.6935 106.339 17.633C106.612 18.022 106.85 18.5079 106.987 19.0587C106.987 19.1235 107.021 19.1559 107.089 19.1559H111.042C111.111 19.1559 111.111 19.1235 111.111 19.0587C110.702 16.7583 109.372 14.6199 107.055 13.5831C105.998 13.0971 104.771 12.8379 103.408 12.8379C101.192 12.8379 99.2838 13.5831 97.7501 15.0087C96.8639 15.8511 96.3185 16.8555 96.0459 17.9896C95.8073 19.0911 95.7051 20.7435 95.7051 22.9143C95.7051 25.0852 95.8073 26.7375 96.0459 27.8391C96.2845 28.9731 96.8979 29.9775 97.7501 30.8199C99.2838 32.278 101.158 32.9907 103.408 32.9907C104.737 32.9907 105.964 32.7639 107.055 32.2456C109.338 31.2088 110.702 29.1351 111.111 26.7699C111.111 26.7051 111.111 26.6727 111.042 26.6727H107.089C107.021 26.6727 106.987 26.7051 106.987 26.7699C106.85 27.3207 106.646 27.7743 106.339 28.1956C105.657 29.1027 104.635 29.4915 103.476 29.5239C101.704 29.5239 100.34 28.5196 99.9995 26.8023C99.9314 26.4135 99.8632 25.8951 99.8632 25.2472C99.8291 24.7288 99.8291 23.9187 99.8291 22.9791Z" fill="#01BC8D"/>
<path d="M57.973 13.3572C57.973 13.1628 57.8026 13.0332 57.6321 13.0332H54.292C54.0875 13.0332 53.9512 13.1952 53.9512 13.3572V32.5381C53.9512 32.7324 54.1216 32.862 54.292 32.862H57.6321C57.8366 32.862 57.973 32.7 57.973 32.5381V26.9004L60.6997 23.8224L66.2553 32.7972C66.2893 32.862 66.3575 32.8944 66.4598 32.8944H70.5497C70.7201 32.8944 70.7542 32.7972 70.686 32.6352L63.4263 20.9388L70.1067 13.3248C70.243 13.1628 70.1748 13.0332 69.9703 13.0332H65.4713C65.4031 13.0332 65.369 13.0332 65.3349 13.098L57.973 21.4249V13.3572Z" fill="#01BC8D"/>
<path d="M82.5135 29.6229C80.6048 29.6229 78.9007 27.938 78.9007 25.9616V13.3904C78.9007 13.196 78.7303 13.0664 78.5598 13.0664H75.2197C75.0152 13.0664 74.8789 13.2284 74.8789 13.3904V25.9292C74.8789 30.3357 78.3553 33.1221 82.5817 33.1221C86.808 33.1221 90.2845 30.3357 90.2845 25.9292V13.3904C90.2845 13.196 90.1141 13.0664 89.9436 13.0664H86.6035C86.399 13.0664 86.2627 13.2284 86.2627 13.3904V25.9616C86.0923 27.938 84.388 29.6229 82.5135 29.6229Z" fill="#01BC8D"/>
<path d="M20.0073 22.9791L30.4708 32.926L37.0829 26.6403C38.2418 25.5388 40.1504 25.5388 41.3093 26.6403C42.4681 27.7419 42.4681 29.5564 41.3093 30.6579L32.5839 38.9524C31.4251 40.054 29.5164 40.054 28.3576 38.9524L15.815 26.9967V34.1247C15.815 35.68 14.4858 36.976 12.8157 36.976C11.1456 36.976 9.81641 35.7124 9.81641 34.1247V11.8983C9.81641 10.3107 11.1456 9.04709 12.8157 9.04709C14.4858 9.04709 15.815 10.3107 15.815 11.8983V18.9616L28.3917 7.00589C29.5505 5.90429 31.4592 5.90429 32.618 7.00589L41.3434 15.3003C42.5021 16.4019 42.5021 18.2163 41.3434 19.318C40.1844 20.4195 38.2758 20.4195 37.1171 19.318L30.5049 13.0323L20.0073 22.9791ZM30.5049 20.1279C28.8348 20.1279 27.5056 21.3915 27.5056 22.9791C27.5056 24.5667 28.8348 25.8304 30.5049 25.8304C32.1749 25.8304 33.5041 24.5667 33.5041 22.9791C33.47 21.3915 32.1408 20.1279 30.5049 20.1279Z" fill="#01BC8D"/>
</g>
<defs>
<clipPath id="clip0_2001_816">
<rect width="154" height="34.7988" fill="white" transform="translate(9 5)"/>
</clipPath>
</defs>
</svg>
