<svg xmlns="http://www.w3.org/2000/svg" viewBox="0 0 961.84 297.13"><defs><style>.cls-1{fill:#e73030;}.cls-2{fill:#f28e8e;}.cls-3{fill:#8e1b1d;}.cls-4{fill:#f08d8d;}.cls-5{fill:#520f11;}.cls-6{fill:#631314;}.cls-7{fill:#130304;}.cls-8{fill:#8d1b1d;}.cls-9{fill:#5b1113;}.cls-10{fill:#651315;}.cls-11{fill:#190505;}.cls-12{fill:#82191a;}.cls-13{fill:#31090a;}.cls-14{fill:#8a1a1c;}.cls-15{fill:#3a0b0c;}.cls-16{fill:#e27373;}.cls-17{fill:#d47272;}.cls-18{fill:#dc5b5b;}.cls-19{fill:#db5c5c;}.cls-20{fill:#dc5d5d;}.cls-21{fill:#d27171;}.cls-22{fill:#e87777;}.cls-23{fill:#d75b5b;}.cls-24{fill:#da5d5d;}.cls-25{fill:#dc5757;}.cls-26{fill:#e75555;}.cls-27{fill:#d75454;}.cls-28{fill:#d86161;}.cls-29{fill:#e75656;}.cls-30{fill:#da5858;}.cls-31{fill:#dd5353;}.cls-32{fill:#e25c5c;}.cls-33{fill:#dc5454;}.cls-34{fill:#d95656;}.cls-35{fill:#d85757;}.cls-36{fill:#e95959;}.cls-37{fill:#e75f5f;}.cls-38{fill:#da6161;}.cls-39{fill:#d45c5c;}.cls-40{fill:#dd5b5b;}.cls-41{fill:#dd5a5a;}.cls-42{fill:#e75757;}.cls-43{fill:#e65858;}.cls-44{fill:#e65757;}.cls-45{fill:#581112;}.cls-46{fill:#f18e8e;}.cls-47{fill:#ee8484;}.cls-48{fill:#d86e6e;}.cls-49{fill:#ab6565;}.cls-50{fill:#e65a5a;}.cls-51{fill:#dd5959;}.cls-52{fill:#d35555;}.cls-53{fill:#e16464;}.cls-54{fill:#e35d5d;}.cls-55{fill:#e65151;}.cls-56{fill:#d97171;}.cls-57{fill:#e35151;}.cls-58{fill:#e15151;}.cls-59{fill:#e88686;}.cls-60{fill:#db5d5d;}.cls-61{fill:#dc6767;}.cls-62{fill:#dc5959;}.cls-63{fill:#d86363;}.cls-64{fill:#e95656;}.cls-65{fill:#db6262;}.cls-66{fill:#e66262;}.cls-67{fill:#ea5555;}.cls-68{fill:#e85b5b;}.cls-69{fill:#da6060;}.cls-70{fill:#d05959;}.cls-71{fill:#cd6161;}.cls-72{fill:#e66363;}.cls-73{fill:#d45454;}.cls-74{fill:#dc5a5a;}.cls-75{fill:#b26060;}.cls-76{fill:#d35a5a;}.cls-77{fill:#e66161;}.cls-78{fill:#ce5e5e;}.cls-79{fill:#eb6a6a;}.cls-80{fill:#e86060;}.cls-81{fill:#80181a;}.cls-82{fill:#460d0e;}.cls-83{fill:#de5e5e;}.cls-84{fill:#dd5e5e;}.cls-85{fill:#e55d5d;}.cls-86{fill:#d65a5a;}.cls-87{fill:#e75c5c;}.cls-88{fill:#e76060;}.cls-89{fill:#d46e6e;}.cls-90{fill:#cd5e5e;}.cls-91{fill:#dc6262;}.cls-92{fill:#d67676;}.cls-93{fill:#741618;}.cls-94{fill:#d46c6c;}.cls-95{fill:#c36666;}.cls-96{fill:#c16060;}.cls-97{fill:#c25f5f;}.cls-98{fill:#da7070;}.cls-99{fill:#c46363;}.cls-100{fill:#d57070;}.cls-101{fill:#c16262;}.cls-102{fill:#d06767;}.cls-103{fill:#db6f6f;}.cls-104{fill:#cf6e6e;}.cls-105{fill:#d36e6e;}.cls-106{fill:#591112;}.cls-107{fill:#85191b;}.cls-108{fill:#420c0d;}.cls-109{fill:#380b0c;}.cls-110{fill:#e36c6c;}.cls-111{fill:#df6c6c;}.cls-112{fill:#de5d5d;}.cls-113{fill:#b96a6a;}.cls-114{fill:#ca5050;}.cls-115{fill:#dc6666;}.cls-116{fill:#e96060;}.cls-117{fill:#e56262;}.cls-118{fill:#dd5c5c;}.cls-119{fill:#db6060;}.cls-120{fill:#e86767;}.cls-121{fill:#e95f5f;}.cls-122{fill:#010000;}</style></defs><title>Asset 2</title><g id="Layer_2" data-name="Layer 2"><g id="Layer_1-2" data-name="Layer 1"><path d="M215.92,66.4c-.59-4.76-.89-9.62-2.12-14.23-3.68-13.77-7.19-27.58-10.88-41.35C202,7.46,201,6.89,197.5,7.67c-10.39,2.34-20.75,4.75-31.25,6.57-10.81,1.88-21.69,3.39-32.57,4.82a3.82,3.82,0,0,1-1.41,0h-.1a2.1,2.1,0,0,1-.91-.53,2,2,0,0,1-.46-.75,5.83,5.83,0,0,1-.7-3,2,2,0,0,1-.06-.76,7.53,7.53,0,0,1,0-1.17Q130,7.91,130,3a3.08,3.08,0,0,0-1.53-3H115.54c-2.23.43-4.49.09-6.73.2H84.7A11.94,11.94,0,0,0,82,.33c-2.6.3-3,.67-3,3.28-.06,5.07,0,10.13-.06,15.2,0,2.15-.53,2.59-2.69,2.62-.91,0-1.82,0-2.73,0-20.62-.68-41.16-2.08-61.5-5.72C8.57,15.07,8,15.55,7.41,19c-1.91,11-3.89,22-5.71,33C1,56-.25,60.06,0,64.24S.81,72.52,1,76.67C1.05,79,2,80,4.39,80.41c1.79.33,3.6.53,5.41.73,1,.11,1.38.47,1.34,1.6-.54,16.5-1,33-1,49.5-.09,24,.88,47.93,2.09,71.88.59,11.61,1.51,23.2,2.52,34.78.85,9.64,1.7,19.27,2.82,28.88,1,8.56,1.89,17.14,2.89,25.71.4,3.41,1.18,3.85,4.66,3.38,7.54-1,15.08-1.94,22.62-2.91l20.68-2.69A2.63,2.63,0,0,0,71,288.12c-.16-2.34-.25-4.68-.5-7-1.08-10.32-2.39-20.62-3.29-31-1.52-17.34-2.56-34.72-3.32-52.12-1.46-33.06-1.43-66.12-.18-99.18.11-2.79.24-5.58.59-8.35s1.3-3.51,4-3.59c3.31-.1,6.63,0,9.95,0,1.47,0,1.81.46,1.83,1.89q.47,43.17,1,86.34c.1,8.25.15,16.5.28,24.75,0,1.33-.3,2.88.69,3.93a2.93,2.93,0,0,1,.73,2.27c.08,3.44.19,6.88.24,10.32,0,1.9,1,2.69,2.82,2.7.91,0,1.82,0,2.73,0l40-.32c5.34-.05,5.49-.16,5.44-5.47q-.24-24.75-.54-49.5-.42-37.82-.86-75.62c0-2.94.36-3.38,3.23-3.68,4.46-.47,8.93-.88,13.38-1.45,1.72-.21,2.31.12,2.21,2-.71,13.83-1,27.66-1.07,41.5-.11,24.7.66,49.37,1.94,74,.7,13.56,1.76,27.09,2.92,40.62.85,10,1.64,19.92,2.83,29.85.89,7.41,1.63,14.83,2.54,22.24.45,3.65,1.26,4.1,4.88,3.59,5.47-.77,10.95-1.44,16.43-2.16,8.76-1.16,17.52-2.27,26.27-3.49,2.9-.4,3.62-1.36,3.28-4.21-.61-5.09-1.05-10.19-1.6-15.29q-1.83-17.13-3.28-34.3c-1.71-20.33-2.53-40.71-3.17-61.1-.87-27.35-.34-54.7.8-82,.25-5.91.68-11.8,1-17.7a4.32,4.32,0,0,1,3.42-4.2c1.37-.41,2.73-.82,4.09-1.25C215.36,70.36,216.26,69.16,215.92,66.4Z"/><path d="M627.77,187.81c.44,12.4,1.15,24.79,1.88,37.17.08,1.46.59,2.16,2,2.17,1,0,1.95.07,2.93.07l74.93,0c4.51,0,4.56.1,4.59,4.57.08,11.31,0,22.61,0,33.92,0,6.54.56,13.09,1,19.63.12,1.7.55,3.32,0,5.07a3.13,3.13,0,0,1-2.53,2.32A9.13,9.13,0,0,1,710,293c-17.55-.93-35.11-.22-52.66-.34-6.83,0-13.67.11-20.49-.12-9.67-.33-19.21.8-28.76,2-6.64.84-13.32,1.35-19.92,2.51-1.71.3-3-.24-3.28-2.13-.27-1.66-1.39-2.26-2.89-2.33a41.85,41.85,0,0,0-4.48,0c-2,.14-3-.93-3.45-2.69a2.27,2.27,0,0,1-.14-.76c.3-6.49-1.21-12.87-1.2-19.34v-39c0-2.83.46-3.45,3.1-3.62,1.94-.12,2.18-1.26,2.08-2.78-.34-5.19-.65-10.37-1-15.55-1-13.55-1.44-27.12-1.91-40.69a23.76,23.76,0,0,1-.08-2.53c.15-1.88-.48-3-2.56-2.85-1.28.07-1.64-.73-1.71-1.85-.13-2.27-.22-4.55-.51-6.8-2-15.65-2.73-31.4-3.7-47.13-.12-1.95-.32-3.89-.36-5.84,0-2.37.8-3.25,3.17-3.58l.19,0c5.5-.64,5.53-.63,5.82-6.23.15-2.85.13-5.72.28-8.57.06-1.09-.3-1.5-1.35-1.63-1.81-.22-3.61-.47-5.39-.85-2.77-.6-4.06-2.23-4.18-5-.16-4-.36-8-.5-12.07-.15-4.26,1-8.37,1.66-12.52,1.69-10.44,3.53-20.85,5.32-31.27.68-4,1.24-4.38,5.15-3.7a377.4,377.4,0,0,0,74.35,5.7,440.77,440.77,0,0,0,49.34-4.1q3.48-.48,7-.85c2.94-.31,3.44,0,3.92,2.9,1,5.76,1.86,11.53,2.79,17.29,1.35,8.39,3,16.75,3.92,25.19.51,4.59.83,9.2,1.57,13.78.79,4.94.77,5-4,5.75-12.41,1.87-24.83,3.51-37.35,4.51-14.41,1.14-28.84,1.18-43.28.92l-1,0c-4.65,0-5.08.43-5.09,5.09,0,1.06.29,1.32,1.32,1.24,7.19-.59,14.39-1.12,21.59-1.68,9.14-.72,18.27-1.48,27.41-2.16,3.44-.25,4.2.52,4.53,4,1.27,13.3,2.49,26.62,3.86,39.91.57,5.47.46,11,1.81,16.41.74,2.94-1.18,5.12-4.25,5.21-17.82.52-35.52,2.63-53.28,3.91-3.61.26-4.13.79-4.14,4.38q0,12.36,0,24.74Z"/><path d="M492,134.51c0-8.87-.13-17.38,0-25.88.41-22.68,1.52-45.32,3.06-67.95.41-6,1-11.9,1.56-17.85.29-3.15,1.32-3.93,4.45-3.62l43.09,4.2c2.75.27,3.58,1.16,3.37,3.88-1.42,18.27-2.82,36.53-3.61,54.84-1.18,27.46-1.57,54.94-.76,82.42.42,14,.87,27.93,1.84,41.86.77,11,1.53,21.91,2.74,32.82,1,9.14,1.62,18.32,2.72,27.46.74,6.18,1,12.41,2,18.57.51,3.14-.11,3.95-3.32,4.38-4.51.6-9,1.06-13.55,1.62-9.81,1.21-19.61,2.42-29.4,3.7-3.12.41-4.27-.49-4.57-3.65-.72-7.68-1.5-15.36-2.69-23a26.38,26.38,0,0,0-4.31-10.13,795,795,0,0,1-46.33-82.75c-.93-1.91-1.45-4-3.06-5.59-.26-.25-.49-.62-1-.57a5.25,5.25,0,0,0-.19,2.64c.64,24.55,1.78,49.08,3.83,73.56,1.1,13.05,2.52,26.08,4.09,39.09.72,6,.45,6.35-5.54,7.12Q426,294.31,405.58,297c-2.79.37-3.9-.39-4.23-3.19-1-8.44-1.83-16.9-2.82-25.34-1.56-13.28-2.73-26.61-3.7-39.94-.94-13-1.79-26.06-2.46-39.1-1.34-26-1.63-51.95-1.18-77.94.39-22.16,1.28-44.29,2.94-66.39.57-7.64,1.43-15.26,1.67-22.93.07-2.31.94-3.2,3.29-3q10.5.74,21,1.66c7.84.68,15.66,1.54,23.5,2.15a5,5,0,0,1,5,4C453.26,42,458.32,57,463.9,71.77q10.62,28.19,23.38,55.48c.58,1.23,1.12,2.48,1.67,3.72A7.33,7.33,0,0,0,492,134.51Z"/><path d="M838.78,116.49c6,.34,6.3-.29,6.26,6.42-.24,42,11.12,80.78,33.13,116.49a11.29,11.29,0,0,1,1.85,5.35c.24,3.63.77,7.24,1.37,10.82.35,2.13-.44,3.36-2.17,4.48-11.25,7.24-22.44,14.56-33.65,21.85-1.52,1-3.09,1.93-4.55,3-1.06.78-1.58.69-2.33-.48A270.87,270.87,0,0,1,799,181.58c-.53-3.14-1-6.27-1.57-9.43-.66,0-.75.62-1,1-4.21,5.92-8.37,11.88-12.6,17.8a7.73,7.73,0,0,0-1.5,5.1c1,17.84,2,35.68,3.57,53.47,1.16,12.92,2.59,25.82,3.9,38.73.26,2.52.11,2.82-2.43,3.15-8.89,1.16-17.79,2.24-26.69,3.37-5.67.71-11.35,1.41-17,2.18-3.48.48-4.29-.1-4.66-3.62-1.94-18.71-4-37.41-5.77-56.14-1.62-17.46-2.61-35-3.33-52.5-1-23.77-1.32-47.55-.92-71.33.25-14.88.65-29.75,1.39-44.61.68-13.69,1.74-27.36,2.89-41,.14-1.68.16-3.37.29-5,.24-3,1.08-3.81,4.08-3.56,7.83.66,15.67,1.41,23.5,2.09,6.61.59,13.22,1.11,19.82,1.72,2.81.25,3.63,1.24,3.42,4.09-1,13.34-2,26.69-2.69,40.05q-.57,11-1.2,22c-.07,1.22.4,1.14,1.24.76a5.21,5.21,0,0,0,2-1.79C798.57,68.13,814.17,48.84,830,29.71q5.35-6.45,10.8-12.83c2.22-2.59,3.07-2.67,5.65-.49,11,9.38,22.06,18.81,33.13,28.17,1.4,1.18,1.48,2.55,1.61,4.23a72.76,72.76,0,0,0,1.58,9A7.47,7.47,0,0,1,881,64.62q-20.88,24.6-40.8,50C839.78,115.16,839.37,115.72,838.78,116.49Z"/><path d="M382.68,280.33c-.68-3.3-1.42-6.59-2.09-9.89-.09-.47-.57-1-.07-1.47,1.17-1,.8-2.2.53-3.41a915.32,915.32,0,0,1-15.82-92c-1-9.08-1.88-18.19-2.58-27.31-1-12.7-1.72-25.41-2.15-38.14q-.36-10.9-.56-21.82c-.05-3.13.95-4.16,4-4.68,1.4-.24,2.8-.54,4.19-.85,2.22-.5,2.58-1,2.17-3.26-.63-3.44-1.31-6.87-2-10.31-.09-.44-.41-1-.08-1.31.95-1,.6-2.17.38-3.31l-7.92-40.88c-1-5.26-1.82-5.78-7.1-4.76a264.63,264.63,0,0,1-43.4,4.49,281.55,281.55,0,0,1-63.78-5.47c-3.5-.71-4.39,0-5.11,3.42-2.45,11.74-5,23.47-7.34,35.23-.72,3.6-2,7.16-1.65,10.92a40,40,0,0,1,.32,9.33c-.49,3.63,1.72,4.81,4.18,5.41,2.27.54,4.58,1,6.88,1.32,1.22.2,1.5.63,1.27,1.9q-1.6,8.72-3,17.45c-1.08,6.8-2,13.61-3.11,20.4-.4,2.53-1.36,3.29-3.92,3.45q-3.12.21-6.24.32a2,2,0,0,0-2.15,2c-.1,1-.15,2.07-.15,3.11,0,11.44.08,22.87,0,34.31-.07,7.48.56,14.92.92,22.38.09,2,1.26,3.44,2.82,3.33s1.74.5,1.64,1.87c-1.16,15-1.72,30-2.22,45q-.53,17.82-.36,35.66c0,1.43-.37,3.18.49,4.19,1.34,1.57,1,3.22,1,4.89.08,2.27,0,4.55.07,6.82.1,3.6.53,4.09,4.11,4,14.76-.3,29.52-.67,44.28-1,1.91,0,2.7-.89,2.67-2.75,0-2.86,0-5.72,0-8.57-.1-23.73.9-47.42,2.41-71.09.33-5.12.72-10.24,1.12-15.35.13-1.65.27-3.35,2.58-3.4,8.13-.21,16.25-.36,24.38.08a3.43,3.43,0,0,1,3.37,2.95c.21.88.34,1.79.47,2.68,1.36,9.51,2.63,19,4.06,28.53q3.74,24.63,8.82,49,1.89,9,3.93,18.05c.51,2.25,1.25,2.74,3.24,2.31,14.85-3.19,29.61-6.73,44.37-10.28C382.88,283.3,383.17,282.72,382.68,280.33ZM305.77,124.88c-3.37,0-6.76-.09-10.13,0-1.62.06-2-.42-1.69-1.93,1.39-7.72,2.7-15.46,4.06-23.18.56-3.13,1.16-6.25,1.75-9.37s1-3.48,4.23-3.58c.45,0,.91,0,1.36,0,1.62-.1,2.45.39,2.48,2.28.07,5.52.35,11,.56,16.55h0c.2,5.26.38,10.51.6,15.77C309.09,124.44,308.72,124.87,305.77,124.88Z"/><path d="M900.73,124.09c-.09-11.54,1-28,1.55-44.5.36-10.78.6-21.57,1.36-32.33.59-8.35,1.25-16.71,1.92-25.06.2-2.49,1.13-3.32,3.7-3.11,8.09.66,16.18,1.4,24.28,2.12L953.35,23c2.95.26,3.56,1,3.24,3.81-1.49,13.18-2,26.42-2.56,39.66s-1.27,26.21-1.73,39.33c-.78,22.73-.51,45.47.34,68.2.53,13.89,1.2,27.78,2.14,41.65,1,14.06,2.15,28.1,3.76,42.1,1.12,9.74,2.22,19.48,3.2,29.23.38,3.83-.21,4.26-4.07,4.71q-20.32,2.42-40.65,4.9c-5.43.67-5.59.72-6.21-4.69-1.17-10.18-2.19-20.38-3.29-30.56-1.71-15.69-3.12-31.41-4.09-47.16-.72-11.67-1.22-23.35-1.69-35C901.06,162.46,900.68,145.77,900.73,124.09Z"/><path class="cls-1" d="M167.4,280.36l-1.07.23c-2.63-.35-3.22-.88-3.59-3.92-.75-6.12-1.53-12.24-2.14-18.38-1-10.14-1.81-20.3-2.61-30.46-.67-8.54-1.22-17.09-1.75-25.64-.6-9.84-.84-19.7-1.43-29.55-.27-4.33-.32-8.69-.37-13-.15-13.9-.89-27.79-.43-41.69.33-10,.23-20.12.82-30.16.35-5.91.19-11.81.29-17.72,0-3,0-3-2.85-3.3a6.87,6.87,0,0,0-1.36,0l0,0c-1.2.53-2.57-.23-3.75.47l-.74.14c-1.06.08-2.16-.36-3.16.28l-.36.1c-1.3,0-2.63-.27-3.9.3-.77.22-1.6-.17-2.35.24-.71.11-1.41.23-2.12.32-4.23.5-5,1.39-5,5.55q.3,28.53.59,57.06.36,33.21.77,66.41c0,1.49-.1,3-.16,4.47a2.54,2.54,0,0,1-1.68.33c-13.26.17-26.5.57-39.76.4-2.91,0-3.65-.66-4.12-3.52a19.2,19.2,0,0,1-.3-3.3c.28-17.91-.35-35.82-.48-53.74-.09-12.65,0-25.32-.4-38-.32-9.61-.11-19.21-.29-28.81,0-.59,0-1.17,0-1.76-.19-2.13-.77-2.66-2.91-2.84-3.06-.27-6.14-.22-9.21-.5.64.38,1.58-.47,2.06.52-2.27,0-4.55,0-6.81.1-3.49.17-4.88,1.47-5.55,4.84a55.65,55.65,0,0,0-.6,8.54q-1.42,35.54-.75,71.08.43,23.86,1.87,47.68c1.2,19.82,2.69,39.61,5.09,59.33.45,3.67.89,7.34,1.08,11,.06,1.29-.3,2-1.74,1.83-.94.44-2-.13-2.94.41l0,0c-1,.5-2.2-.18-3.22.41s-1.94.29-2.92.38c-.94.45-2-.16-2.94.39h-.11c-1.07.49-2.28-.18-3.33.41l0,0c-.89.48-2-.16-2.84.4h-.11c-1,.45-2.06-.13-3,.4h-.12c-1,.46-2.06-.15-3,.4h-.1c-1,.45-2.08-.14-3,.41l-.09,0c-.94.44-2-.12-3,.4h0c-.89.48-1.94-.15-2.82.39h-.16c-.95.45-2-.14-3,.41l-.11,0c-1,.44-2.06-.13-3,.4a1,1,0,0,1-1.1.29c-2.23-.39-2.6-2.19-2.81-3.94-.44-3.74-.84-7.48-1.3-11.22-1.27-10.18-2.16-20.39-3-30.61-.65-7.75-1.16-15.52-1.72-23.28-.62-8.41-.87-16.84-1.45-25.25-.25-3.49-.26-7-.34-10.5-.12-5.64-.36-11.29-.56-16.92-.5-14.28-.47-28.57-.26-42.84.17-11.42.31-22.84.78-34.25.18-4.47.49-8.93.68-13.4.1-2.49-.51-3.09-3-3.41-1.42-.18-2.84-.37-4.25-.57-3.79-.54-4.85-1.9-4.3-5.65s1.23-7.7,1.91-11.54C7.34,38.19,8.88,29.1,10.49,20c.18-1,.08-2.13,1.15-2.76,12.1,2.09,24.29,3.46,36.52,4.43,9.26.75,18.55,1,27.84,1.29,3.09.08,3.88-.71,4.48-3.9,1.73-.89,2.14-2.37,2.09-4.21-.09-3.43,0-6.87,0-10.3A3.46,3.46,0,0,1,83.15,2c14.5-.35,29-.43,43.51-.43,1.41,0,1.77.56,1.76,1.85,0,3.7,0,7.4.05,11.11a17,17,0,0,0,.09,2.14c.4,3.26,1.64,4.32,4.94,4,4.26-.48,8.51-1.08,12.76-1.66,17.19-2.33,34.2-5.65,51.07-9.67,3.2-.76,3.39-.66,4.23,2.48,3.62,13.47,7.16,27,10.77,40.43.49,1.83,0,2.81-1.87,3.21a37.22,37.22,0,0,0-4.11,1.22,5.92,5.92,0,0,0-4.19,5.11,88.4,88.4,0,0,0-.62,9.33c-1.25,25.83-2,51.67-1.56,77.54.28,17.28,1,34.54,1.93,51.8.94,18,2.68,36,4.49,54,.61,6,1.07,12,1.93,18,.34,2.34,0,2.67-2.11,2.94-.9.47-2-.16-2.86.41l0,0c-.9.49-2-.16-2.84.41l-.12,0c-.94.44-2-.12-2.93.4h0c-1,.51-2.16-.19-3.16.41l0,0c-1,.51-2.17-.19-3.16.41l0,0c-1,.5-2.17-.18-3.16.41l0,0c-.89.48-1.95-.16-2.84.41l-.11,0c-1,.46-2.06-.14-3,.4h-.1c-.94.46-2-.18-3,.44l-.46.1c-.88.17-1.81-.24-2.66.25h0c-.89.48-1.93-.15-2.82.39l-.08.06-.08-.06c-.93.45-2-.14-2.91.4h0C169.33,280.44,168.28,279.8,167.4,280.36Z"/><path class="cls-2" d="M11.64,17.26c-1.27,7.2-2.57,14.39-3.82,21.59-1.13,6.5-2.21,13-3.3,19.53-.13.76-.14,1.54-.23,2.31a2.34,2.34,0,0,0,2.22,2.85c2.36.4,4.73.77,7.11,1.08A2.42,2.42,0,0,1,16,67.49c-.38,8.48-.73,17-1.1,25.45,0,.33,0,.65,0,1-.23,19-.75,37.92-.39,56.88.17,8.49.49,17,.78,25.48.21,6.09.39,12.19.78,18.27.59,9,1,18,1.8,26.95.67,7.22,1.05,14.47,1.69,21.7.81,9.15,1.74,18.3,3,27.41.31,2.31.56,4.62.78,6.94a3.82,3.82,0,0,0,2.05,3.1c-4.62.51-4.59.5-5.16-4-2.21-17.45-3.81-35-5.08-52.51-2.54-35.18-3.85-70.41-3.3-105.68.21-13.7.39-27.4,1.08-41.09.12-2.46.34-4.92.39-7.39.06-2.93-.84-4-3.69-4.55-1.72-.32-3.47-.51-5.21-.73-3-.38-3.22-.69-2.71-3.71.63-3.71,1.24-7.42,1.89-11.12C5.36,39.68,7.19,29.47,8.91,19.23,9.21,17.44,9.79,16.62,11.64,17.26Z"/><path class="cls-3" d="M209.93,287.58c.21,1.39-.49,2-1.82,2.16-5.72.74-11.42,1.54-17.13,2.29-8.48,1.12-17,2.17-25.43,3.33-2.85.38-3.17.27-3.5-2.53-.36-3-.68-6-1.07-9.06-.09-.74,0-1,.84-1.11q15.62-1.92,31.22-3.92c4.82-.62,9.62-1.33,14.42-2.05.7-.1,1.25-.39,1.35.67C209.16,280.77,209.56,284.17,209.93,287.58Z"/><path class="cls-3" d="M21,284.47c-.71-1.62.28-1.73,1.85-1.92,12-1.46,24-3,36-4.59,2.7-.35,5.4-.68,8.08-1.17,1.12-.21,1.52.14,1.61,1.15.29,3.29.56,6.58.88,9.86.13,1.32-.42,1.87-1.7,2-3.67.44-7.32,1-11,1.43l-26.2,3.38c-2.12.27-4.24.51-6.35.87-1.75.3-2.15-.75-2.3-2.09C21.63,290.51,21.34,287.62,21,284.47Z"/><path class="cls-3" d="M132.38,203c0,4.56,0,8.58,0,12.61,0,1.19-.46,1.59-1.62,1.57-2.34,0-4.68,0-7,0-12.21.3-24.43.3-36.65.37-1.76,0-2.45-.34-2.56-2.3-.16-2.92,0-5.84-.23-8.75-.13-1.66.58-1.89,2-1.88q12.39,0,24.78,0c6-.05,12-.21,17.92-.29A4.37,4.37,0,0,0,132.38,203Z"/><path class="cls-2" d="M150.91,66.73c1.22-.83,2.67-.28,4-.64.67-.19.82.5.81,1-.06,6.36.26,12.73-.15,19.08,0,.46-.12.91-.14,1.36-.16,7.07-.25,14.14-.49,21.21-.35,10.32-.41,20.65-.26,31q.22,16.44.77,32.89c.28,8.68.64,17.36,1.16,26,.68,11.19,1.48,22.37,2.34,33.54q1,13.36,2.33,26.71c.6,6.12,1.52,12.2,2.17,18.31a3.41,3.41,0,0,0,2.9,3.36c-.64.08-1.29.15-1.93.24-3.62.54-3.51.53-4-3.14-1.81-14.18-3-28.41-4.17-42.65-1.15-14-2.14-28.11-2.77-42.19-1.06-23.31-1.79-46.62-1.5-69.95.17-14.42.68-28.84,1-43.26.07-3.31,0-6.63,0-9.94C153,68.21,152.53,67.08,150.91,66.73Z"/><path class="cls-2" d="M73.58,70.84c-1.16-.5-2.43,0-3.63-.7,2.11,0,4.22,0,6.33,0,1.56,0,3.12,0,4.69,0,2.55,0,3.25.68,3.29,3.25.06,4.22,0,8.44.06,12.66.15,15.33.12,30.65.51,46,.29,10.91,0,21.82.37,32.72.39,10.64.15,21.29.36,31.94a30.32,30.32,0,0,0,.33,3.67c.21,1.56,1.4,1.92,2.71,2,2,0,4,0,6.05,0,7.8,0,15.61.07,23.41-.11,4.22-.1,8.44-.22,12.66-.22-.13,1-1,.72-1.52.73-14.76.14-29.51.24-44.26.4-1.43,0-1.94-.44-2-1.87-.08-9.48-.23-19-.34-28.43q-.57-48.1-1.12-96.21c-.06-4.58-1.08-5.63-5.6-5.72Z"/><path class="cls-3" d="M131.11,85.53c0-4.61,0-8.57,0-12.52,0-1.86.82-2.7,2.65-2.86,5.43-.51,10.84-1.05,16.25-1.67,1.08-.13,1.43.15,1.43,1.16,0,3.51,0,7,0,10.52,0,1.06-.46,1.26-1.39,1.35-4.78.46-9.54,1-14.32,1.47A5.6,5.6,0,0,0,131.11,85.53Z"/><path class="cls-3" d="M62,91.58a115.82,115.82,0,0,1,.79-15.69c.35-2.54,1.4-3.33,3.95-3.38,3.44-.06,6.88,0,10.32,0a2.48,2.48,0,0,1,2.84,2.7c.09,3,0,6.1.08,9.14,0,1.09-.65,1-1.41,1-3,0-6-.07-9,0-5.13,0-6.87,1.73-7.16,6.83,0,.58,0,1.17-.08,1.75C61.33,93.29,62,92.38,62,91.58Z"/><path class="cls-3" d="M202.57,86.89c0-8.23.54-16.42,1.11-24.62a4.56,4.56,0,0,1,3.55-4.33c1.48-.46,3-.86,4.45-1.39.93-.34,1.18.18,1.25.84.32,3.2,1.19,6.32,1.38,9.55a2.41,2.41,0,0,1-2.05,2.81c-.69.17-1.37.37-2.06.56-5.32,1.51-6.61,3.17-6.81,8.67-.12,3-.31,6.08-.47,9.11C202,87.92,202.47,87.35,202.57,86.89Z"/><path class="cls-3" d="M11.73,71.4c-.15,2.75-.29,5.08-.42,7.41,0,.53,0,1-.84.9-2.05-.33-4.11-.58-6.16-.88a1.69,1.69,0,0,1-1.57-1.69C2.48,74,2.23,70.83,2,67.67c-.11-1.22,0-2,1.63-1.52s3.48.38,5.2.69c2.69.47,3,.87,2.94,3.61Z"/><path class="cls-4" d="M83.15,2c0,4.81,0,9.62,0,14.43,0,1.86-.74,2.83-2.69,2.67,0-4.85,0-9.71,0-14.57C80.44,1.88,80.47,1.88,83.15,2Z"/><path class="cls-5" d="M201.44,128.65q0-8.06,0-16.11c0-.63-.17-1.31.33-1.85.31.18.14.59.38.8-.47,5.71-.3,11.44-.38,17.16C201.67,128.84,201.56,128.84,201.44,128.65Z"/><path class="cls-6" d="M61.32,121.62v-16.5h.82c-.62,5.5-.39,11-.51,16.49C61.53,121.82,61.43,121.83,61.32,121.62Z"/><path class="cls-7" d="M61.66,126.7c.29,3.92-.74,7.77-.56,11.68.09-4.15-.73-8.31.18-12.45C61.56,126.11,61.4,126.51,61.66,126.7Z"/><path class="cls-8" d="M202.57,86.89c0,.42-.07.89.35,1.2-.13,3.38-.25,6.75-.38,10.12-1-.48-.45-1.26-.39-1.95C202.34,93.14,201.88,90,202.57,86.89Z"/><path class="cls-9" d="M202.15,96.26c.2.64-.2,1.39.39,1.95,0,1.72.37,3.47-.31,5.16-.42-.3,0-.85-.38-1.18C201.91,100.21,201.48,98.21,202.15,96.26Z"/><path class="cls-10" d="M62,91.58c.21.77-.26,1.64.37,2.34,0,1.59.33,3.21-.31,4.77-.41-.3-.05-.85-.37-1.18C61.77,95.53,61.36,93.53,62,91.58Z"/><path class="cls-11" d="M201.8,135.68v7.71h-.37v-7.72C201.55,135.5,201.67,135.51,201.8,135.68Z"/><path class="cls-12" d="M201.85,102.19c.43.3.29.77.38,1.18,0,1.92,0,3.85-.08,5.78-.1.2-.21.2-.34,0Z"/><path class="cls-13" d="M201.8,135.68h-.37c0-2.35,0-4.69,0-7h.34Q201.78,132.16,201.8,135.68Z"/><path class="cls-14" d="M61.72,97.51c.42.3.28.78.37,1.18v4.64h-.37Z"/><path class="cls-15" d="M61.66,126.7a.81.81,0,0,1-.38-.77c0-1.43,0-2.87,0-4.31a.81.81,0,0,0,.31,0Z"/><path class="cls-16" d="M139,67.81a5.49,5.49,0,0,1,3.87-.14l-3.06.21A.6.6,0,0,1,139,67.81Z"/><path class="cls-17" d="M147.14,67.15c1.15-1,2.5-.28,3.75-.47C149.69,67.26,148.39,67,147.14,67.15Z"/><path class="cls-18" d="M188.14,277.64c1-.83,2.1-.27,3.16-.41C190.3,277.82,189.2,277.61,188.14,277.64Z"/><path class="cls-19" d="M191.26,277.25c1-.83,2.11-.27,3.16-.41A6.21,6.21,0,0,1,191.26,277.25Z"/><path class="cls-20" d="M50.74,277.25c1-.84,2.22-.26,3.32-.41A7.08,7.08,0,0,1,50.74,277.25Z"/><path class="cls-21" d="M139,67.81l.81.07a6.65,6.65,0,0,1-3.19.33C137.33,67.52,138.21,67.94,139,67.81Z"/><path class="cls-22" d="M143.24,67.57c1-.87,2.07-.53,3.16-.28Z"/><path class="cls-23" d="M194.38,276.86c1-.83,2.11-.27,3.16-.41A6.43,6.43,0,0,1,194.38,276.86Z"/><path class="cls-24" d="M60,276.08c1-.8,2.15-.29,3.22-.41A6.42,6.42,0,0,1,60,276.08Z"/><path class="cls-25" d="M200.56,276.08c.86-.77,1.89-.31,2.84-.41C202.51,276.25,201.52,276,200.56,276.08Z"/><path class="cls-26" d="M197.51,276.46c.88-.81,2-.25,2.93-.4A5.76,5.76,0,0,1,197.51,276.46Z"/><path class="cls-27" d="M167.4,280.36c.85-.76,1.87-.3,2.82-.4A5.47,5.47,0,0,1,167.4,280.36Z"/><path class="cls-28" d="M54.18,276.85c.89-.77,2-.29,2.94-.39A6,6,0,0,1,54.18,276.85Z"/><path class="cls-29" d="M203.36,275.69c.86-.81,1.91-.27,2.86-.41A5.5,5.5,0,0,1,203.36,275.69Z"/><path class="cls-30" d="M63.23,275.69c.89-.82,2-.28,2.94-.41A5.39,5.39,0,0,1,63.23,275.69Z"/><path class="cls-31" d="M26.47,280.36c.92-.78,2-.29,3-.4A5.65,5.65,0,0,1,26.47,280.36Z"/><path class="cls-32" d="M170.18,280c.88-.79,1.94-.25,2.9-.4A6,6,0,0,1,170.18,280Z"/><path class="cls-33" d="M29.59,280c.9-.79,2-.3,3-.41A6.19,6.19,0,0,1,29.59,280Z"/><path class="cls-34" d="M173.25,279.57c.86-.75,1.88-.29,2.82-.39A5.23,5.23,0,0,1,173.25,279.57Z"/><path class="cls-35" d="M32.73,279.57c.85-.75,1.87-.29,2.82-.39A5.34,5.34,0,0,1,32.73,279.57Z"/><path class="cls-36" d="M176,279.19c.83-.71,1.75-.43,2.66-.25A7.24,7.24,0,0,1,176,279.19Z"/><path class="cls-37" d="M35.51,279.19c.89-.8,2-.25,3-.4A5.82,5.82,0,0,1,35.51,279.19Z"/><path class="cls-38" d="M47.93,277.63c.86-.76,1.89-.29,2.84-.4C49.89,277.82,48.89,277.57,47.93,277.63Z"/><path class="cls-39" d="M179.16,278.84c.88-.86,2-.3,3-.44C181.19,279,180.15,278.75,179.16,278.84Z"/><path class="cls-40" d="M44.81,278c.91-.79,2-.28,3-.4A6.07,6.07,0,0,1,44.81,278Z"/><path class="cls-41" d="M185.33,278c.86-.77,1.89-.31,2.84-.41C187.29,278.21,186.29,278,185.33,278Z"/><path class="cls-42" d="M38.55,278.81c.92-.8,2-.28,3-.41A6.28,6.28,0,0,1,38.55,278.81Z"/><path class="cls-43" d="M41.68,278.41c.92-.79,2-.27,3-.4A6.18,6.18,0,0,1,41.68,278.41Z"/><path class="cls-44" d="M182.21,278.41c.91-.79,2-.27,3-.4A6.32,6.32,0,0,1,182.21,278.41Z"/><path class="cls-45" d="M201.81,109.17l.34,0c0,.78,0,1.56,0,2.34l-.38-.8Z"/><path class="cls-1" d="M616.33,277.29l-.43.09c-1,.17-2.08-.24-3.07.26l0,0c-1,.5-2.17-.18-3.16.41l0,0c-1,.5-2.21-.18-3.23.41a1.55,1.55,0,0,1-1.47.31c-1-.55-1.9.31-2.86.24-.88.11-1.79-.25-2.63.23l0,0c-1,.5-2.24-.18-3.26.41l-.08,0c-.81.4-1.76-.07-2.57.36l-4.18.68a2.85,2.85,0,0,1-2.4-2,3.22,3.22,0,0,0-3.27-2.29c-1.42-.05-2.84-.21-4.26-.28-1.89-.08-2.66-.71-3.07-2.56a14,14,0,0,1-.18-3.1q0-18.94,0-37.9c0-1.4-.1-2.71-1.22-3.71,4-.61,4.22-.93,4.28-5.17,1.48.43,2-.22,2-1.64a101.92,101.92,0,0,0-.54-10.49c-.37-5.5-.71-11-1-16.49-.46-7.57-.74-15.15-1-22.73-.25-6.93-.71-13.86-.54-20.81.09-3.53-.07-3.69-3.4-4.88a2.94,2.94,0,0,1-2.06-2.76c-.51-4.51-.78-9-1.14-13.56-.59-7.5-.92-15-1.48-22.51-.17-2.26-.08-4.54-.41-6.79a2,2,0,0,1,.51-1.81c.89-.12,1.78-.25,2.67-.36,2.23-.25,3.16-1.76,3.64-3.71,2.61-1.81,2.39-4.7,2.39-7.25,0-6.43.65-12.84.5-19.27-.07-2.81-.41-3.23-3.18-3.63a30.15,30.15,0,0,1-5.73-1.15c-2-.69-2.67-1.63-2.78-3.75a25.25,25.25,0,0,1,.56-5.42c1.91-11.54,3.94-23.05,5.84-34.59.16-1,0-2.14,1.12-2.78,6.42.93,12.83,1.9,19.26,2.77,9.66,1.3,19.38,2,29.11,2.59q13.05.8,26.12.4A468.37,468.37,0,0,0,697,19.21c3.22-.42,6.45-.77,9.67-1.22,1.6-.22,2.4.08,2.68,2,2,12.88,4.1,25.74,6.17,38.61.26,1.6.53,3.2.79,4.8.17,1.06-.1,1.7-1.35,1.81-2,.18-4,.75-6,.74-.78.46-1.71-.11-2.48.39l-.09.06-.11,0c-.92.45-2-.15-2.88.4l0,0c-.87.49-1.91-.16-2.77.4h0c-1,.52-2.17-.18-3.16.41l0,0c-1,.51-2.16-.18-3.16.41l0,0c-1,.55-2.18-.25-3.16.45l-.75.16c-1.08,0-2.19-.32-3.21.31l-.13.1H687a12.29,12.29,0,0,0-3.53.12c-1.85.41-3.77.13-5.62.61a18.69,18.69,0,0,0-3.81.19c-4.15.41-8.32.28-12.47.55a269.09,269.09,0,0,1-27.1-.09c.7.24,1.78-.65,2.33.58-2.4,0-4.81,0-7.21.05-2.83.12-4.11,1.25-4.26,4-.28,5.25-.45,10.51-.54,15.77-.06,3,1.17,4.17,4.19,4,5.65-.34,11.29-.78,16.92-1.22,7.46-.58,14.9-1.2,22.35-1.8,3.57-.28,7.14-.52,10.69-.86,1.86-.18,2.5.55,2.65,2.38q1.46,18.15,3.09,36.29c.16,1.8.69,3.56,1,5.35.22,1.3.37,2.62-1,3.49-3.06.13-6.11.31-9.17.33-.75.17-1.52.22-2.27.38a17.47,17.47,0,0,0-2.89.11,13.16,13.16,0,0,0-1.87.27,16.91,16.91,0,0,0-4.08.32,2,2,0,0,1-.63.08,25.38,25.38,0,0,0-5.7.53l-1.14,0a63.25,63.25,0,0,0-8.13.59h-2c-.83.21-1.7.12-2.53.36a21.14,21.14,0,0,0-2.87.13,15.09,15.09,0,0,0-1.89.27,25.6,25.6,0,0,0-4.79.4c-.82.13-1.69-.27-2.47.26-1.53.21-3.08.35-4.59.65-2.63.53-3.6,1.58-3.61,4.26,0,5.2,0,10.39.16,15.59q.44,13.42,1.07,26.85c.56,11.74,1.3,23.46,2.32,35.17.21,2.46,1.05,3.35,3.45,3.7a24.26,24.26,0,0,0,3.3.2l75.11,0c2.88,0,3,0,3,2.88.19,11.17.24,22.34,0,33.51,0,2.19.33,4.39.47,6.59.1,1.68.35,3.42-1.38,4.56-3.11.33-6.2-.32-9.3-.32-13.21,0-26.42-.16-39.61.09-5.13.1-10.26.27-15.39.3-3.9,0-7.79-.17-11.68-.36a93.66,93.66,0,0,0-11.48.41,4.33,4.33,0,0,1-1,.15c-.84.1-1.72-.22-2.54.21l-.15.07-.15-.06C619,277.37,617.6,276.59,616.33,277.29Z"/><path class="cls-3" d="M713,277.44c.33,3.56.6,6.84.94,10.11.29,2.81-.73,3.92-3.88,3.77-16.64-.82-33.29-.21-49.94-.35-4.15,0-8.31.22-12.47.2-4.87,0-9.75-.21-14.62-.26-8.53-.09-17,1.07-25.39,2.14-6.5.82-13,1.31-19.49,2.45-.78.14-1.62.16-1.81-.94-.47-2.74-2.51-3.41-4.85-3.61a15.26,15.26,0,0,0-3.31,0c-2.06.28-2.71-.87-2.75-2.57-.07-3.05,0-6.11-.06-9.16,0-.81.29-1.19,1.14-1.17,1.3.05,2.6-.05,3.89.08,1.44.14,2.63.71,2.9,2.38.31,1.9,1.64,2.41,3.31,2.12,8.7-1.5,17.5-2.2,26.25-3.3a140.57,140.57,0,0,1,24.28-1.13c8.18.38,16.38.27,24.57-.08,5-.22,10-.05,15-.05,7.87,0,15.74,0,23.61,0,2.61,0,5.18.33,7.77.54A7.26,7.26,0,0,0,713,277.44Z"/><path class="cls-3" d="M626.78,92a91.65,91.65,0,0,1-.13-12.62c.05-1.23.16-2.45.22-3.68.11-2.61.7-3.24,3.26-3.25,7.68,0,15.35.12,23,0a346.41,346.41,0,0,0,35-2.19c8.76-1,17.5-2.16,26.21-3.53,1.13-.18,1.8,0,2,1.36.39,3,1,5.88,1.46,8.81.26,1.51.19,2.47-1.84,2.76-8.6,1.22-17.2,2.4-25.82,3.43-17.59,2.09-35.24,2.42-52.91,2.25-2.07,0-4.11-.4-6.22-.06-2.73.44-3.78,1.29-4.07,4C626.82,90.21,626.82,91.11,626.78,92Z"/><path class="cls-3" d="M625.67,159.36c0-3.83,0-7.66,0-11.49,0-2.59.58-3.27,3.1-3.54,3.16-.34,6.34-.56,9.5-.83,9.31-.76,18.61-1.62,27.93-2.26,5.11-.34,10.2-1.12,15.35-.87a5.11,5.11,0,0,0,2.32-.13c2-1,2.32.15,2.29,1.69a32.75,32.75,0,0,0,1.06,7.1c.6,2.88-.45,4.22-3.41,4.21-9.1,0-18.12,1.17-27.17,1.87l-21.35,1.65c-1.68.13-3.37.21-5,.45S626.91,157.78,625.67,159.36Z"/><path class="cls-2" d="M570.28,99.13c.83,11.43,1.25,22.89,2.3,34.31.31,3.42.62,6.84.74,10.27.06,1.54.62,2.19,2.09,2.42,2.91.47,3.51,1.22,3.46,4.11-.19,10.52.65,21,.89,31.51.17,7.32.69,14.63,1.12,21.94.35,6,1.08,12,1.17,18,0,.51,0,1,0,1.55,0,1-.69,1.27-1.51,1.49-1.14.31-.71-.81-1.13-1.16-1.73-22.54-2.66-45.11-3.33-67.7,0-1.3.08-2.6.07-3.9,0-2.94-1.26-4.52-4.11-5-1.15-.19-1.44-.63-1.52-1.74-1-12.68-1.84-25.38-2.58-38.09-.1-1.75-.28-3.49-.35-5.24C567.48,99.39,567.7,99.18,570.28,99.13Z"/><path class="cls-2" d="M575.31,17.22c-1.15,6.69-2.32,13.37-3.45,20.06s-2.23,13.39-3.35,20.08c0,.32-.12.64-.15,1-.33,3.75.2,4.51,3.93,5.31,1.9.41,3.82.72,5.74,1a2.1,2.1,0,0,1,2,2.37c0,8.49-.33,17-.8,25.44-.09,1.63-1.19,2.34-2.66,2.63.25-7.91.53-15.82.73-23.74.13-4.87-.56-5.6-5.33-6.23-1.35-.17-2.68-.51-4-.65-2-.2-2.66-1.28-2.35-3.17.69-4.29,1.31-8.58,2-12.87,1.64-9.77,3.36-19.54,5-29.32C572.88,17.31,573.61,16.68,575.31,17.22Z"/><path class="cls-46" d="M575.12,228.77c1.59-.18,1.88.63,1.87,2.06q-.06,20.37,0,40.74c0,3.67.49,4.14,4.14,4.14,1,0,2,0,2.93,0,1.85.06,3.35.65,3.63,2.75.16,1.14,1.12,1.52,1.83,2.14-.7.11-1.42.17-2.11.34-1.53.39-2.48.21-2.92-1.65-.48-2.09-2.36-2.59-4.27-2.71a40.74,40.74,0,0,0-4.28,0c-1.18.06-1.65-.42-1.64-1.57,0-2,0-4,0-6q0-19,0-37.95C574.26,230.21,573.78,229.1,575.12,228.77Z"/><path class="cls-3" d="M575.69,73.91c0,1.5,0,3,0,4.49,0,.93-.17,1.46-1.34,1.22-1.84-.39-3.71-.58-5.56-.92a2.91,2.91,0,0,1-2.35-2.34c-.85-3.38-.11-6.86-.66-10.26-.1-.6.38-.53.78-.46,2.35.44,4.7.94,7.07,1.29,1.64.24,2.16,1.19,2.13,2.69s0,2.86,0,4.29Z"/><path class="cls-47" d="M623.77,276.41c2-.79,4.23-.48,6.32-.61a120.47,120.47,0,0,1,12.46.07,160,160,0,0,0,17.52-.09c2.14-.15,4.29-.08,6.44-.08h39.78a20.16,20.16,0,0,1,5.35.66,4.86,4.86,0,0,1-3.73.61,107.42,107.42,0,0,0-11.49-.4q-28.86.1-57.74.12c-4,0-8.06-.12-12.09-.18A5.1,5.1,0,0,1,623.77,276.41Z"/><path class="cls-8" d="M574.6,156c0,1.36,0,2.72,0,4.09,0,.63.14,1.38-.91,1.3-.71-.05-1.43,0-1.51-1.05-.26-3.68-.59-7.36-.9-11-.09-1,.64-.86,1.16-.7a2.89,2.89,0,0,1,2.14,2.91c0,1.49,0,3,0,4.48Z"/><path class="cls-48" d="M616.33,277.29c1.24-1,2.67-.25,4-.44C619,277.39,617.67,277.18,616.33,277.29Z"/><path class="cls-49" d="M623.77,276.41l2.82.1a10,10,0,0,1-3.62.26c-.11-.09-.14-.17-.08-.24a.17.17,0,0,1,.13-.09Z"/><path class="cls-50" d="M612.83,277.64c1-.76,2-.44,3.07-.26A9.93,9.93,0,0,1,612.83,277.64Z"/><path class="cls-51" d="M609.71,278c1-.83,2.1-.27,3.16-.41C611.87,278.21,610.77,278,609.71,278Z"/><path class="cls-52" d="M602.29,278.78c.92-.09,1.82-.87,2.76,0l-2.73.35c-.14-.06-.19-.12-.15-.19S602.25,278.78,602.29,278.78Z"/><path class="cls-40" d="M606.52,278.42c1-.81,2.15-.29,3.23-.41A6.49,6.49,0,0,1,606.52,278.42Z"/><path class="cls-30" d="M697.54,67.48c1-.83,2.1-.26,3.16-.41A6.32,6.32,0,0,1,697.54,67.48Z"/><path class="cls-53" d="M596.34,279.59c1-.8,2.17-.31,3.26-.41C598.58,279.84,597.43,279.5,596.34,279.59Z"/><path class="cls-54" d="M700.66,67.08c.83-.78,1.85-.25,2.77-.4A5.15,5.15,0,0,1,700.66,67.08Z"/><path class="cls-55" d="M703.4,66.7c.86-.81,1.92-.27,2.88-.4A5.8,5.8,0,0,1,703.4,66.7Z"/><path class="cls-56" d="M602.29,278.78a1.53,1.53,0,0,0,0,.3l-2.76.12C600.37,278.45,601.38,278.9,602.29,278.78Z"/><path class="cls-57" d="M706.48,66.29c.74-.71,1.65-.28,2.48-.39A4.5,4.5,0,0,1,706.48,66.29Z"/><path class="cls-58" d="M593.69,279.93c.78-.69,1.71-.26,2.57-.36A4.54,4.54,0,0,1,593.69,279.93Z"/><path class="cls-59" d="M623,276.44c0,.11,0,.22,0,.33l-2.35.07C621.33,276.14,622.22,276.54,623,276.44Z"/><path class="cls-1" d="M416.84,279.18l-.1.05-.1-.05c-.93.46-2-.14-2.92.39l-.1.05-.09,0c-.81.42-1.75-.11-2.54.37a24.78,24.78,0,0,1-4.2.64c-2.3-.51-3-1.23-3.32-3.86-.58-4.51-1.07-9-1.6-13.55-1.08-9.22-1.91-18.47-2.66-27.72-.65-8-1.2-15.91-1.74-23.88-.51-7.7-.85-15.41-1.41-23.11-.24-3.17-.34-6.36-.4-9.53-.13-6.16-.33-12.33-.55-18.49-.64-18-.33-36-.21-54,.07-9.78.44-19.58,1-29.37.33-6.35.58-12.7.92-19.05.36-6.61.79-13.21,1.38-19.81.47-5.16.71-10.35,1.28-15.51a2.94,2.94,0,0,1,.63-2c6.61.51,13.22,1,19.82,1.56,7.7.67,15.39,1.57,23.1,2.1,2.57.18,3.65,1.28,4.34,3.54q5.1,16.77,11.06,33.27,12.41,34.59,28.05,67.86c1,2,1.58,4.29,3.39,5.84.68.59,1.35,1.27,2.4.84s1.13-1.33,1.16-2.26c0-1.37.05-2.73.07-4.09.73,0,1.07.7,1.73.88.59-.51.31-1.2.32-1.79,0-4.48.09-9,0-13.44-.18-8,.33-16,.51-23.93q.3-13.3,1.1-26.62c.83-13.91,1.48-27.84,3.07-41.7a2.74,2.74,0,0,1,.64-2Q522.54,22.9,544.27,25c1.36.13,1.81.75,1.71,2-.68,9-1.37,18-2,27-.48,6.86-1,13.73-1.3,20.6-1,21.8-1.73,43.61-1.54,65.44.17,18.05.61,36.1,1.54,54.13.91,17.5,2.38,35,4.11,52.41.82,8.33,1.38,16.68,2.66,25,.18,1.2-.15,1.89-1.39,2-.79.09-1.66-.43-2.34.35-.36.33-.78.18-1.18.13a2.32,2.32,0,0,0-2,.1l0,0c-1,.49-2.21-.16-3.23.4a1.43,1.43,0,0,1-1.48.3,2.38,2.38,0,0,0-2,.1l0,0c-1,.5-2.23-.19-3.25.42l-.08,0c-1,.44-2.07-.12-3,.4h-.09c-.95.44-2-.12-3,.4h.05c-.75.42-1.63-.08-2.38.33l-1,.06c-1,.45-2-.16-3,.4l-.11,0c-1,.46-2.07-.14-3,.4H517c-1,.45-2.07-.15-3,.42l-.1,0c-.94.44-2-.12-2.95.4h0c-.88.48-1.92-.14-2.8.38l-.1.06-.1-.05c-.6.36-1.18-.07-1.76,0-2.07-.56-2.23-2.28-2.39-4-.65-6.65-1.46-13.28-2.15-19.92a29.88,29.88,0,0,0-5-13.16q-11.31-17.51-21.57-35.65-7.43-13.14-14.39-26.53c-4-7.67-7.9-15.35-11.53-23.18a4.28,4.28,0,0,0-1.74-2.24c-.93,1.21.59,2.66-.55,3.73a14.47,14.47,0,0,0-2.22-3.17c-.8-.71-1.62-1.41-2.76-1s-1,1.48-1,2.35c-.06,1.29.05,2.59.08,3.89.3,14.48.95,28.94,1.79,43.4,1,16.85,2.23,33.67,4.12,50.45.74,6.57,1.41,13.15,2.11,19.73.15,1.38-.18,2.35-1.85,2.15-.92.49-2-.19-2.91.44l-.44.13c-.89.13-1.83-.3-2.67.26l-.45.13c-.89.12-1.82-.26-2.68.22h0c-1,.51-2.16-.19-3.15.41l0,0c-1,.5-2.2-.18-3.22.41s-1.94.29-2.92.38c-1,.48-2.23-.19-3.26.4l0,0c-.89.48-1.95-.16-2.83.4h-.13c-1,.46-2.06-.14-3,.4h-.1C418.61,279.21,417.65,278.69,416.84,279.18Z"/><path class="cls-2" d="M400.07,20.75q-.72,9.09-1.43,18.2c-.29,3.81-.64,7.62-.82,11.43-.61,12.43-1.27,24.86-1.74,37.3-.79,20.32-.72,40.63-.64,60.95,0,7.07.2,14.14.44,21.21q.45,12.82,1.16,25.64c.57,10,1.2,20.05,2,30.06.79,10.27,1.72,20.52,2.71,30.77.67,6.89,1.55,13.76,2.33,20.64a4,4,0,0,0,2.74,3.64c-6.4.87-5.1,1.14-5.8-4.57-2.78-22.82-4.6-45.72-6.06-68.66-2.05-32.23-2.71-64.49-2.17-96.77q.48-28.83,2.35-57.61c.67-10.24,1.53-20.46,2.21-30.69C397.47,20.09,398.83,20.68,400.07,20.75Z"/><path class="cls-3" d="M450.56,286.82c0,2.73-.07,2.86-2.74,3.19-10.79,1.36-21.59,2.66-32.39,4-3.27.41-6.54.92-9.8,1.41-2,.3-2.56-.13-2.79-2.15-.33-3-.67-6.05-1.09-9.06-.16-1.17.14-1.48,1.37-1.63,7.4-.88,14.77-1.93,22.15-2.88,6.68-.86,13.37-1.67,20.05-2.5.45-.05.91-.06,1.36-.15,2.77-.52,2.76-.52,3,2.42.11,1.23.27,2.45.41,3.67S450.41,285.6,450.56,286.82Z"/><path class="cls-3" d="M504.59,293.57c-.72,0-1.28-.53-1.39-1.5-.38-3.47-.72-6.95-1.1-10.42-.08-.68.18-.88.84-1,8.36-1,16.71-2.07,25.06-3.1,6.75-.84,13.51-1.62,20.25-2.53,1.08-.15,1.36.05,1.48,1,.41,3.4.89,6.8,1.34,10.2.18,1.38-.84,1.65-1.81,1.78-4.57.57-9.14,1.06-13.71,1.62-7.84,1-15.68,2-23.52,2.94Z"/><path class="cls-3" d="M442.74,154.91a5.3,5.3,0,0,1,2.49,2.85A772.61,772.61,0,0,0,493.74,245a28.7,28.7,0,0,1,4.37,13.76c.05.7.17,1.4.34,2.7-1.73-2.69-3.17-4.91-4.59-7.15q-19.11-30.22-35.46-62c-3.46-6.76-6.89-13.54-10.11-20.42a8.44,8.44,0,0,0-2.16-3.2c-.44-.36-1-.95-1.45-.89-2.65.44-2-1.41-2-2.77-.1-2.53,0-5.06-.28-7.59A2.9,2.9,0,0,1,442.74,154.91Z"/><path class="cls-2" d="M446.87,157.44c-.08-1.16-.19-2.32-.25-3.48,0-.45-.12-1,.35-1.24s.92.37,1.21.74a12.36,12.36,0,0,1,1.46,2.27c7.38,15.78,15.55,31.13,24,46.34,7.74,13.9,16,27.47,24.58,40.89,3.12,4.9,4,10.46,4.51,16.13.47,5.42,1,10.83,1.64,16.24.13,1.13.46,2.33,1.84,2.72.28.19.27.41.07.65-4.34.57-4.36.57-4.84-3.7-.73-6.37-1.37-12.76-2.17-19.13a30,30,0,0,0-4.77-12.63A780,780,0,0,1,448,160.12C447.57,159.25,447.24,158.33,446.87,157.44Z"/><path class="cls-2" d="M500.82,20.83c-.49,5.55-1,11.09-1.46,16.64-.33,4.13-.66,8.27-.83,12.41-.54,12.7-1.28,25.39-1.74,38.09-.52,14.34-.67,28.68-.67,43,0,.25,0,.51,0,.91-1.32-.46-1.84-1.62-2.62-2.5-.25-12.28.1-24.56.48-36.83.4-12.46,1.08-24.91,1.73-37.37.56-10.83,1.7-21.62,2.47-32.44C498.26,21,499.11,20.35,500.82,20.83Z"/><path class="cls-60" d="M431.65,277.25c1-.8,2.15-.29,3.22-.41C433.85,277.43,432.74,277.22,431.65,277.25Z"/><path class="cls-19" d="M425.47,278c1-.83,2.17-.28,3.26-.4A7,7,0,0,1,425.47,278Z"/><path class="cls-61" d="M539.38,274.51c1-.79,2.15-.27,3.23-.4C541.59,274.72,540.47,274.47,539.38,274.51Z"/><path class="cls-62" d="M434.84,276.86c1-.84,2.1-.27,3.15-.41C437,277,435.9,276.82,434.84,276.86Z"/><path class="cls-63" d="M532.72,275.31c1-.81,2.16-.3,3.25-.42C535,275.5,533.81,275.22,532.72,275.31Z"/><path class="cls-64" d="M441.09,276.11c.82-.78,1.75-.48,2.67-.26Z"/><path class="cls-65" d="M526.56,276.07c.9-.8,2-.25,3-.4A5.93,5.93,0,0,1,526.56,276.07Z"/><path class="cls-66" d="M529.61,275.68c.92-.78,2-.26,3-.4A6.28,6.28,0,0,1,529.61,275.68Z"/><path class="cls-67" d="M438,276.46c.84-.71,1.76-.45,2.68-.22Z"/><path class="cls-68" d="M444.2,275.72c.86-.88,1.94-.27,2.9-.44A6.36,6.36,0,0,1,444.2,275.72Z"/><path class="cls-69" d="M520.25,276.86c.9-.78,2-.3,3-.4A6.24,6.24,0,0,1,520.25,276.86Z"/><path class="cls-70" d="M413.72,279.57c.89-.75,1.94-.28,2.92-.39A6,6,0,0,1,413.72,279.57Z"/><path class="cls-50" d="M517.12,277.24c.92-.79,2-.26,3-.4A6.24,6.24,0,0,1,517.12,277.24Z"/><path class="cls-71" d="M514,277.65c.92-.78,2-.31,3-.41C516.07,277.8,515,277.59,514,277.65Z"/><path class="cls-43" d="M419.54,278.8c.91-.79,2-.27,3-.4A6.28,6.28,0,0,1,419.54,278.8Z"/><path class="cls-72" d="M511,278c.89-.8,2-.24,2.95-.4A6.08,6.08,0,0,1,511,278Z"/><path class="cls-73" d="M508.18,278.39c.85-.74,1.86-.29,2.8-.38A5.16,5.16,0,0,1,508.18,278.39Z"/><path class="cls-74" d="M422.67,278.41c.85-.76,1.88-.29,2.83-.4C424.62,278.59,423.62,278.36,422.67,278.41Z"/><path class="cls-73" d="M506.3,278.7c0-.22-.05-.43-.07-.65l1.75.35A2.31,2.31,0,0,1,506.3,278.7Z"/><path class="cls-75" d="M524.23,276.4c.72-.63,1.58-.27,2.38-.33A3.63,3.63,0,0,1,524.23,276.4Z"/><path class="cls-76" d="M411,280c.76-.7,1.68-.29,2.53-.37A4.77,4.77,0,0,1,411,280Z"/><path class="cls-77" d="M545.71,273.9c.65-.95,1.5-.62,2.34-.35Z"/><path class="cls-78" d="M416.84,279.18c.78-.72,1.73-.29,2.6-.39A4.49,4.49,0,0,1,416.84,279.18Z"/><path class="cls-79" d="M542.57,274.13a1.38,1.38,0,0,1,2-.1Z"/><path class="cls-80" d="M535.93,274.91a1.37,1.37,0,0,1,2-.1Z"/><path class="cls-1" d="M779.82,276.07h-.1c-1.07.49-2.28-.18-3.33.41l0,0c-.91.48-2-.16-2.86.41l-.09,0c-1.07.49-2.28-.18-3.34.41l0,0c-1,.5-2.17-.18-3.16.41l0,0c-1,.51-2.16-.19-3.16.41l0,0c-.89.48-1.95-.16-2.84.4H761c-1,.45-2.06-.14-3,.4h-.11c-1,.44-2.06-.13-3,.4h-.12c-1,.45-2.05-.13-3,.4h-.11c-.94.43-2-.14-3,.4l0,0c-1,.5-2.2-.18-3.21.4a1.52,1.52,0,0,1-1.51.3c-2.19-.39-2.69-2.06-2.86-3.88-.48-5.24-1.06-10.47-1.63-15.7-1.11-10.14-2.17-20.28-3-30.44-.52-6.27-.93-12.56-1.36-18.84-.54-8-.86-16.07-1.44-24.09-.24-3.3-.29-6.62-.35-9.92-.1-5.72-.41-11.42-.55-17.13-.39-15.2-.51-30.4-.28-45.6.17-11.16.29-22.33.78-33.49.44-10,.87-20,1.55-29.93.67-9.72,1.5-19.42,2.31-29.12a2.59,2.59,0,0,1,.62-1.79q11.75,1,23.49,2c5.63.49,11.26.95,16.89,1.43.85.07,1.69.23,2.53.23,1.72,0,2.23.88,2.11,2.48-.38,4.85-.72,9.71-1,14.56-.49,7.19-1,14.38-1.42,21.57-.51,8.62-.92,17.25-1.4,25.87-.14,2.4,1,3.24,3.22,2.39s3-2.81,4.28-4.38c.66-.13.87-.71,1.17-1.19.57-.41.74-1.11,1.2-1.6.38-.34.65-.78,1-1.14a.28.28,0,0,1,.19-.19,4.22,4.22,0,0,1,1-1.36.45.45,0,0,1,.2-.21c.15-.57.75-.9.82-1.51l.51-.57a7.69,7.69,0,0,0,1.2-1.22.27.27,0,0,1,.19-.2c.15-.58.76-.9.83-1.52l.07-.13c.43-.42,1-.75,1.1-1.42l.51-.56a2.54,2.54,0,0,0,1.05-1.4l.08-.13c.44-.42,1-.75,1.1-1.42.08-.41.48-.29.72-.44.15-.57.76-.89.84-1.51l1.63-2.1c.44-.41,1-.73,1.09-1.4l.47-.55c.45-.4,1-.74,1.1-1.4l1.64-2.11c.44-.4,1-.73,1.09-1.39.15-.19.31-.37.47-.56.44-.4,1-.73,1.09-1.39.15-.19.31-.37.47-.56.45-.4,1-.73,1.09-1.39,9.54-12.2,19.44-24.11,29.45-35.93,4.44-5.23,3-5.05,8.25-.63,10.09,8.5,20.07,17.13,30.17,25.62,1.55,1.31,1.44,2.13.23,3.57-16.78,19.84-33.22,40-49,60.6-1,1.29-2,2.59-2.87,3.94-1.2,1.77-.77,2.91,1.31,3.39a58.32,58.32,0,0,0,12.78,1.25c2.88,0,2.91.06,2.86,3a217,217,0,0,0,19.1,92.32,211.9,211.9,0,0,0,15.14,28.11c.65,1,.76,1.63-.37,2.35q-18.09,11.69-36.14,23.43c-.8-.16-1.13-.84-1.5-1.43a275.4,275.4,0,0,1-26.16-53.65A293.42,293.42,0,0,1,800,157.52a1.19,1.19,0,0,0-.27-.75c-1,.48-1,1.85-2,2.23-.07-.37-.17-.75-.22-1.13a2,2,0,0,0-1.44-1.88c-.91-.24-1.45.36-1.92,1-4.6,6.53-9.22,13-13.78,19.59-1.2,1.73-1.25,3.77-1.13,5.82.64,10.43,1.19,20.86,1.89,31.29.89,13.14,1.95,26.26,3.35,39.36q1.11,10.46,2.19,20.91c.06.54.56,1.41-.69,1.3-1,.46-2.07-.15-3,.41l-.09,0C781.88,276.12,780.77,275.54,779.82,276.07Z"/><path class="cls-3" d="M804.43,198.09a276.62,276.62,0,0,0,13.74,37.21,281.76,281.76,0,0,0,19,34.83c.92,1.43,1.55.78,2.43.21q18.45-12,36.91-24c.52-.34,1-1.06,1.67-.76s.37,1.16.45,1.78c.34,2.62.63,5.25,1.05,7.86.25,1.53.13,2.62-1.39,3.59q-18.52,11.93-36.93,24c-1.11.73-1.52.55-2.21-.53a269.47,269.47,0,0,1-35-82.63,8.94,8.94,0,0,1-.12-1.16C803.87,198.08,804.1,198,804.43,198.09Z"/><path class="cls-2" d="M737.77,20.73c-.33,8.09-1.24,16.14-1.87,24.22-.33,4.26-.66,8.53-.83,12.8-.44,10.89-1.1,21.77-1.35,32.68-.11,4.6-.13,9.21-.3,13.81-.51,14.42-.41,28.84-.27,43.26.1,10.19.42,20.38.77,30.56.27,7.91.68,15.81,1.15,23.71.58,9.5,1.14,19,2,28.51,1.11,12.25,2.5,24.47,3.76,36.71q.48,4.74.85,9.49c.14,1.76.63,3.29,2.32,4.18-4.6.59-4.67.6-5.17-4.08-2.05-19.1-4.13-38.2-5.46-57.37q-3.55-51.26-2.9-102.61c.29-22.86,1.08-45.71,2.69-68.52.59-8.42,1.32-16.83,1.9-25.25C735.18,20.92,736,20.26,737.77,20.73Z"/><path class="cls-3" d="M879.6,49.71c.64,3.42,1.21,6.26,1.7,9.12a4.84,4.84,0,0,1-1,4.18q-12.1,14.51-24.1,29.11c-6.23,7.64-12.34,15.39-18.45,23.15a2.62,2.62,0,0,1-3,1.1c-1.77-.36-3.61-.39-5.39-.7-2.15-.37-2.21-.48-.92-2.17,4.29-5.62,8.59-11.24,13-16.81C852.34,82.75,863.59,69.05,875,55.47,876.46,53.71,878.22,52.19,879.6,49.71Z"/><path class="cls-3" d="M739.68,284.29c-.45-1.31.19-1.53,1.61-1.71,12.94-1.56,25.86-3.26,38.79-4.91,1.92-.24,3.86-.44,5.79-.7.59-.09,1-.1,1.11.64.44,3.8.91,7.59,1.31,11.39.11,1-.87.88-1.4,1-3.47.47-6.95.86-10.42,1.28q-11.69,1.44-23.36,2.89c-3.48.44-7,.89-10.41,1.4-1.46.21-2-.46-2.14-1.77C740.27,290.66,740,287.56,739.68,284.29Z"/><path class="cls-2" d="M797.71,159c.32-1.45,1.38-2.42,2.35-3.95.74,4.37,1.38,8.35,2.1,12.31A276.72,276.72,0,0,0,822,231.82a286.21,286.21,0,0,0,19.25,35.55c-2.68,1.94-2.68,1.94-4.41-.81A269.58,269.58,0,0,1,799,167.07C798.53,164.38,798.14,161.69,797.71,159Z"/><path class="cls-3" d="M781.7,191.25a2.13,2.13,0,0,1-.56-1.72c-.09-2.59,0-5.18-.39-7.77a5.77,5.77,0,0,1,.81-4.12c4.62-6.66,9.29-13.28,14.2-20.27.73,4.3,1.41,8.21,2,12.11,0,.23,0,.64-.16.7-3.43,1.61-4.48,5.21-6.56,7.91C787.81,182.35,784.83,186.83,781.7,191.25Z"/><path class="cls-81" d="M804.43,198.09l-.35.41a9.31,9.31,0,0,1-.75-3.16c.12-.19.24-.18.35,0Z"/><path class="cls-82" d="M802.92,193.39a4.17,4.17,0,0,1-.52-3.12l.87,3.15C803.14,193.58,803,193.57,802.92,193.39Z"/><path class="cls-83" d="M770.14,277.25c1-.84,2.23-.26,3.34-.41A7,7,0,0,1,770.14,277.25Z"/><path class="cls-84" d="M767,277.64c1-.83,2.1-.27,3.16-.41C769.18,277.83,768.08,277.6,767,277.64Z"/><path class="cls-85" d="M763.89,278c1-.83,2.11-.26,3.16-.41C766.06,278.2,765,278,763.89,278Z"/><path class="cls-86" d="M745.5,280.36c1-.79,2.14-.28,3.21-.4A6.51,6.51,0,0,1,745.5,280.36Z"/><path class="cls-87" d="M776.39,276.47c1-.85,2.22-.25,3.33-.41A7.27,7.27,0,0,1,776.39,276.47Z"/><path class="cls-88" d="M782.94,275.69c.92-.79,2-.27,3-.41A6.35,6.35,0,0,1,782.94,275.69Z"/><path class="cls-77" d="M779.82,276.07c.92-.78,2-.26,3-.4A6.28,6.28,0,0,1,779.82,276.07Z"/><path class="cls-89" d="M787.75,85.88a1.14,1.14,0,0,1-1.33,1l1.26-1.61A.35.35,0,0,1,787.75,85.88Z"/><path class="cls-90" d="M748.67,280c.89-.79,2-.28,3-.4A5.84,5.84,0,0,1,748.67,280Z"/><path class="cls-91" d="M773.57,276.86c.87-.77,1.9-.3,2.86-.41C775.54,277,774.53,276.79,773.57,276.86Z"/><path class="cls-51" d="M751.73,279.58c.91-.78,2-.28,3-.4A6,6,0,0,1,751.73,279.58Z"/><path class="cls-69" d="M754.85,279.19c.92-.78,2-.27,3-.4A6.18,6.18,0,0,1,754.85,279.19Z"/><path class="cls-38" d="M758,278.8c.91-.78,2-.27,3-.4A6.2,6.2,0,0,1,758,278.8Z"/><path class="cls-38" d="M761.09,278.41c.86-.76,1.89-.29,2.84-.4C763.05,278.59,762.05,278.35,761.09,278.41Z"/><path class="cls-92" d="M787.75,85.88c0-.19,0-.38-.07-.57a1.54,1.54,0,0,1,1.07-1.06h.07A3,3,0,0,1,787.75,85.88Z"/><path class="cls-93" d="M802.92,193.39l.35,0c.14.64.27,1.28.41,1.92h-.35A3.25,3.25,0,0,1,802.92,193.39Z"/><path class="cls-94" d="M797.45,72.7a1.13,1.13,0,0,1-1.05,1.4A2.63,2.63,0,0,1,797.45,72.7Z"/><path class="cls-95" d="M798.63,71.15a1.18,1.18,0,0,1-1.1,1.42C797.89,72.09,798.26,71.62,798.63,71.15Z"/><path class="cls-96" d="M808.77,58.3a1.16,1.16,0,0,1-1.09,1.39C808,59.23,808.4,58.76,808.77,58.3Z"/><path class="cls-94" d="M800.19,69.2a1.53,1.53,0,0,1-.84,1.51C799.11,69.92,799.73,69.61,800.19,69.2Z"/><path class="cls-97" d="M810.33,56.35a1.17,1.17,0,0,1-1.09,1.39C809.6,57.27,810,56.81,810.33,56.35Z"/><path class="cls-98" d="M788.82,84.24h-.07a1.08,1.08,0,0,1,1-1.26A1.64,1.64,0,0,1,788.82,84.24Z"/><path class="cls-99" d="M795.89,74.66a1.17,1.17,0,0,1-1.1,1.42Z"/><path class="cls-100" d="M791,81.44a2.17,2.17,0,0,1-1,1.36A1.07,1.07,0,0,1,791,81.44Z"/><path class="cls-101" d="M807.21,60.25a1.16,1.16,0,0,1-1.09,1.39C806.48,61.18,806.84,60.71,807.21,60.25Z"/><path class="cls-102" d="M804.48,63.75a1.18,1.18,0,0,1-1.1,1.4A3,3,0,0,1,804.48,63.75Z"/><path class="cls-103" d="M793.7,77.93c-.19.6-.43,1.17-1.2,1.22C792.75,78.6,792.86,77.9,793.7,77.93Z"/><path class="cls-104" d="M792,79.72a1.47,1.47,0,0,1-.82,1.51C790.9,80.43,791.55,80.13,792,79.72Z"/><path class="cls-105" d="M794.72,76.21a1.51,1.51,0,0,1-.83,1.52C793.65,76.94,794.27,76.62,794.72,76.21Z"/><path class="cls-99" d="M802.91,65.7a1.16,1.16,0,0,1-1.09,1.4Z"/><path class="cls-1" d="M379.57,265.77c-1.87-8.62-3.7-17.25-5.43-25.89-3.29-16.42-6-32.92-8.36-49.5q-2.62-18.9-4.46-37.89c-1.22-12.8-2.24-25.61-3-38.44-.4-7.07-.77-14.14-1-21.21s-.41-14-.49-21c0-3.77,1.49-5.44,5.16-6.12,1.22-.22,2.43-.47,3.64-.64,1.36-.19,1.84-.72,1.55-2.2-2.68-13.55-5.26-27.12-7.93-40.67-.9-4.61-1-4.57-5.65-3.67a267.42,267.42,0,0,1-43,4.47,282.37,282.37,0,0,1-65.3-5.69,3.27,3.27,0,0,0-.51,1.25c-2.7,13.63-5.82,27.18-8.54,40.8-.55,2.72.33,4,3.07,4.66s5.46,1.16,8.22,1.63c3.65.63,3.67.62,3,4.36-2.57,15.17-5.38,30.3-7.38,45.56-.33,2.54-.64,5-2.78,6.83-1,3-3.2,4-6.13,4-1.55,0-3.09.15-4.64.23a14.55,14.55,0,0,1,.44,4q0,19.5,0,39c0,3.47.44,4,3.89,4.51a2.36,2.36,0,0,1,2.29,2.42,16.48,16.48,0,0,1-.11,2.53q-.83,9.89-1.36,19.81c-.33,6.28-.57,12.58-.93,18.86-.58,9.84-.59,19.71-1,29.56-.31,7.59-.07,15.2-.06,22.8a15.11,15.11,0,0,0,.24,3.29c.35,1.64,1.13,2.66,3,2.69,1,0,2.08.19,3.11.11,6.1-.42,12.21,0,18.31-.36,5.9-.37,11.82-.1,17.72-.43a8.39,8.39,0,0,0,3.43-.49c0-.64.13-1.29.12-1.94-.29-30.64,1-61.22,3.4-91.76.47-6.07.74-6.43,7.05-7,6.92-.79,13.86-.31,20.79-.28a23.09,23.09,0,0,1,3.89.23c3,.5,3.79,1.23,4.26,4.18.35,2.18.72,4.35,1,6.54,3.5,26.79,8,53.4,13.67,79.82.72,3.36,1.41,6.73,2.29,10.06.31,1.19.63,2.43,2.13,2.71,13.72-2.88,27.32-6.28,41-9.43C379.62,267.79,379.87,267.14,379.57,265.77Zm-73.8-140.89c-3.37,0-6.76-.09-10.13,0-1.62.06-2-.42-1.69-1.93,1.39-7.72,2.7-15.46,4.06-23.18.56-3.13,1.16-6.25,1.75-9.37s1-3.48,4.23-3.58c.45,0,.91,0,1.36,0,1.62-.1,2.45.39,2.48,2.28.07,5.52.35,11,.56,16.55h0c.2,5.26.38,10.51.6,15.77C309.09,124.44,308.72,124.87,305.77,124.88Z"/><path class="cls-3" d="M332.19,279.16a2.19,2.19,0,0,0,2.47.56l35.27-8.1c2.46-.57,4.93-1.16,7.38-1.78,1.06-.28,1.6-.17,1.82,1.13a86.92,86.92,0,0,0,1.95,8.92c.54,1.86-.18,2.41-1.79,2.77-5.31,1.2-10.6,2.51-15.91,3.73-9,2.06-18,4.05-26.92,6.15-1.28.3-1.77,0-2-1.23-.83-4.05-1.75-8.09-2.63-12.14C331.92,279,332.05,279,332.19,279.16Z"/><path class="cls-3" d="M280.28,276.25c0,4.24,0,8.26,0,12.28,0,1.16-.36,1.59-1.56,1.6-2.66,0-5.31.23-8,.28q-16.27.29-32.55.53c-1.29,0-2.58.19-3.88.2a1.78,1.78,0,0,1-2-2c0-3.18,0-6.36,0-9.54,0-.89.27-1.28,1.22-1.3,2,0,3.89-.21,5.84-.25,10.26-.18,20.52-.33,30.78-.52,2.53,0,5.06-.24,7.59-.29A4.31,4.31,0,0,0,280.28,276.25Z"/><path class="cls-2" d="M229.64,126.61c1.47.11,1.05,1.22,1.06,2q0,20.47,0,40.93c0,3.64,0,3.64,3.58,3.93,1.86.16,2.71,1,2.61,3.15-.22,4.46-.46,8.93-.92,13.38-.26,2.52-.31,5-.5,7.56-.48,6.6-.58,13.22-.95,19.82-.47,8.43-.52,16.86-.83,25.29-.36,9.35-.19,18.7-.22,28,0,5,.42,5.39,5.41,5.15,8.57-.4,17.15-.07,25.72-.58,4.66-.28,9.35,0,14-.39-.16,1.35-1.23.7-1.83.71-12.48.33-25,.59-37.44.87-2.08,0-4.16,0-6.24.18-1.76.12-2.37-.6-2.36-2.33.05-6.88-.08-13.77,0-20.65.35-24.36,1.41-48.69,3.33-73a12.37,12.37,0,0,0,0-2.72c-.36-2.57-1.67-3.67-4.61-3.7-1.22,0-1.52-.4-1.52-1.56,0-14.62,0-29.23,0-43.85C228,127.82,227.7,126.39,229.64,126.61Z"/><path class="cls-3" d="M281,231.15c0-8.56.54-17.1,1.12-25.63.31-4.59.54-9.19.84-13.78.26-4.2.55-8.4.84-12.6.12-1.84.84-3,2.94-3.11,3-.22,6-.15,9-.12,5.06.06,10.13-.35,15.18.28,1.51.19,2.73.9,3,2.35.77,3.78,1.34,7.61,2.05,11.73-2.79-1.47-5.44-1.52-8.1-1.52-5.33,0-10.66,0-16,0-.71,0-1.43,0-2.14,0-4.7.17-5.7,1.29-6,6-.54,8.86-1.24,17.7-1.83,26.55-.24,3.56-.36,7.12-.54,10.69C280.65,232,280.87,231.54,281,231.15Z"/><path class="cls-2" d="M289.21,174.28a7.42,7.42,0,0,1,3.74-.72c6.5,0,13,0,19.5,0a14.48,14.48,0,0,1,3.28.38,3.6,3.6,0,0,1,2.81,3.34c1,6.91,2.09,13.81,3,20.73,1.37,10,3,20,4.68,29.91,2.64,15.25,5.7,30.4,9.06,45.5.34,1.49.5,3.11,1.93,4.12-4,1.2-4,1.2-4.93-2.85-5.52-25-10.16-50.2-13.73-75.57-.91-6.49-1.77-13-2.8-19.45-.59-3.66-1.85-4.78-5.54-5.12-4.86-.44-9.74-.13-14.61-.21Z"/><path class="cls-2" d="M245.3,17.27c.13,3.08-.89,6-1.49,8.94-2.25,11.1-4.65,22.16-7,33.24-.55,2.62,0,3.52,2.73,4,3.49.7,7,1.38,10.5,2,1.23.22,1.74.49,1.48,2q-2.86,16.16-5.5,32.34c-1,6.38-1.91,12.79-2.82,19.2a3.74,3.74,0,0,1-2.81,3.35q2.1-16.11,4.92-32.11,1.8-10.35,3.53-20.71c.34-2-.15-2.7-2.19-3.1-3.7-.73-7.39-1.45-11.1-2.11-1.48-.26-1.85-.91-1.53-2.4,2.76-12.93,5.45-25.88,8.16-38.82.3-1.4.57-2.8.82-4.2S243.89,16.91,245.3,17.27Z"/><path class="cls-3" d="M234.24,65.7c4.14.76,8.14,1.49,12.14,2.24.72.13,1.13.47,1,1.35-.61,3.25-1.18,6.5-1.68,9.76-.17,1.12-.59,1.36-1.68,1.1-2.33-.56-4.71-.93-7.05-1.46a3.07,3.07,0,0,1-2.74-3.57C234.36,72,234.24,68.91,234.24,65.7Z"/><path class="cls-3" d="M358.82,83.06a80.59,80.59,0,0,1-.43-11.9c.07-2.28,1.11-3.35,3.35-3.86,4.72-1.06,4.74-1.07,5.74,3.65.47,2.2.85,4.43,1.32,6.64.22,1-.14,1.59-1.19,1.77s-1.89.44-2.84.56C362.48,80.19,360.29,80.63,358.82,83.06Z"/><path class="cls-3" d="M232.61,180.12c-.49,2-.2,4.66-.59,7.22-.12.84-.27,1.44-1.36,1.4s-1.37-.63-1.49-1.44a24.48,24.48,0,0,1-.44-4,56.2,56.2,0,0,0-.16-6.49c-.09-1,.3-.91.92-.94C231.76,175.71,232.66,176.8,232.61,180.12Z"/><path class="cls-106" d="M280.3,258.88q0-7,0-14.1a3.55,3.55,0,0,1,.36-1.87c.1-.16.21-.17.34,0q-.18,8-.37,16C280.51,259.06,280.41,259.07,280.3,258.88Z"/><path class="cls-107" d="M281,242.88l-.34,0c0-3.36,0-6.72.06-10.08a2.47,2.47,0,0,1,.31-1.68l.36.82Z"/><path class="cls-108" d="M280.3,258.88h.32v6.55h-.32Z"/><path class="cls-109" d="M332.19,279.16h-.39c-.45-.3-.42-.72-.31-1.48C331.8,278.35,332,278.76,332.19,279.16Z"/><path class="cls-1" d="M923.52,279.59c-.63.13-1.22.54-1.91.29a3.31,3.31,0,0,0-2.36.1l0,0c-1.32.37-2.69,0-4,.33-1.7-.39-1.87-1.83-2.07-3.17-.65-4.49-1.07-9-1.56-13.54q-2-18.09-3.43-36.25c-.68-8.6-1.29-17.2-1.71-25.82q-.71-14.77-1.2-29.56c-.26-8.1-.69-16.2-.72-24.31,0-4.61-.22-9.22-.24-13.82-.05-9.59.06-19.2.57-28.79.18-3.31.24-6.62.35-9.92.16-4.86.4-9.73.57-14.58.32-8.82.62-17.63,1-26.45.36-8.43,1.17-16.82,1.72-25.24.13-2,.39-4,.39-6a2.56,2.56,0,0,1,.88-2.08q7.38.61,14.75,1.25l24.66,2.18c1.48.14,3,.32,4.46.39,1.23.06,1.54.7,1.41,1.79-1.43,12.27-1.92,24.59-2.5,36.91q-.63,13.23-1.26,26.46-1.1,22.88-1.06,45.77c.05,21,.77,41.95,1.88,62.9.75,14.33,1.74,28.64,3.11,42.92.93,9.76,2.18,19.48,3.18,29.22.16,1.56,1,3.26-.34,4.75-.94.45-2-.13-2.94.41l0,0c-1,.5-2.23-.19-3.26.42l-.07,0c-1,.44-2.07-.12-3,.4h-.1c-1.07.49-2.28-.18-3.33.41l0,0c-.9.48-2-.16-2.84.4h-.11c-1,.45-2.06-.13-3,.4h-.11c-.94.44-2-.12-2.94.39h0c-1,.5-2.19-.17-3.21.4a1.5,1.5,0,0,1-1.49.3,2.35,2.35,0,0,0-2,.1l0,0c-1.12.52-2.4-.22-3.5.46C925.42,279.59,924.4,279,923.52,279.59Z"/><path class="cls-2" d="M909.81,20.74c-.36,4.45-.7,8.9-1.08,13.35-1.18,13.9-1.73,27.82-2,41.76-.13,5.7-.42,11.4-.72,17.09-.53,10.37-.65,20.75-.9,31.13-.25,10.9.27,21.79.25,32.69,0,7.32.4,14.64.72,22,.48,10.95,1,21.89,1.6,32.82q.74,12.42,1.93,24.79c1,11,2,22,3.38,33,.34,2.63.55,5.28.86,7.91.13,1.09.26,2.23,1.5,2.73.24.75-.5.39-.72.63-3.27.38-3.38.39-3.74-2.89-1.14-10.45-2.26-20.91-3.27-31.38-1.22-12.6-2.26-25.22-2.93-37.87-.49-9.08-.95-18.16-1.29-27.25-.84-22-1.49-44-.85-66.05.56-19.35,1.48-38.68,2.17-58,.4-11.43,1.65-22.8,2.38-34.2C907.21,20.53,907.33,20.5,909.81,20.74Z"/><path class="cls-3" d="M960.21,286.32c.08,3.57.07,3.48-2.6,3.81-8.81,1.06-17.6,2.23-26.41,3.29-5.53.66-11.08,1.17-16.62,1.79-1.41.16-1.91-.29-2-1.77-.23-3.09-.69-6.17-1.09-9.25-.17-1.25.13-1.77,1.58-1.91,9.74-.87,19.45-2,29.14-3.36,5.33-.73,10.67-1.31,16-2,1-.13.89.51,1,1.05C959.55,281.06,959.94,284.14,960.21,286.32Z"/><path class="cls-110" d="M914.59,280.63l.72-.63,4,0A19.67,19.67,0,0,1,914.59,280.63Z"/><path class="cls-111" d="M926.37,279.12c1.1-.7,2.31-.2,3.46-.33-1,.61-2.06.33-3.11.42C926.56,279.35,926.45,279.31,926.37,279.12Z"/><path class="cls-112" d="M945.41,276.86c1-.84,2.22-.26,3.33-.41A7,7,0,0,1,945.41,276.86Z"/><path class="cls-113" d="M926.37,279.12a2,2,0,0,1,.35.09,7,7,0,0,1-3.2.38C924.36,278.79,925.43,279.35,926.37,279.12Z"/><path class="cls-114" d="M933.25,278.41c1-.78,2.14-.31,3.21-.4A6.29,6.29,0,0,1,933.25,278.41Z"/><path class="cls-115" d="M951.94,276.09c1-.81,2.17-.3,3.26-.42C954.17,276.29,953,276,951.94,276.09Z"/><path class="cls-116" d="M955.16,275.69c.89-.82,2-.28,2.94-.41A5.13,5.13,0,0,1,955.16,275.69Z"/><path class="cls-117" d="M948.84,276.46c.93-.78,2-.26,3-.4A6.26,6.26,0,0,1,948.84,276.46Z"/><path class="cls-118" d="M942.6,277.24c.86-.76,1.89-.29,2.84-.4C944.56,277.43,943.56,277.18,942.6,277.24Z"/><path class="cls-119" d="M939.48,277.63c.92-.78,2-.27,3-.4A6.18,6.18,0,0,1,939.48,277.63Z"/><path class="cls-50" d="M936.43,278c.89-.8,2-.24,2.94-.39A5.92,5.92,0,0,1,936.43,278Z"/><path class="cls-120" d="M919.25,280a1.84,1.84,0,0,1,2.36-.1Z"/><path class="cls-121" d="M929.8,278.81a1.35,1.35,0,0,1,2-.1Z"/><path class="cls-2" d="M310.67,122.51c-.25-5.7-.51-11.4-.73-17.1-.39-9.86-.72-19.71-1.12-29.57-.14-3.37-1.2-4.45-4.5-5,0-.34,0-.64.49-.65l2.34,0c3.75,0,4.27.48,4.4,4.16.38,10.8.63,21.61,1.23,32.4.25,4.32,0,8.67.56,13C313.61,121.72,312.89,122.34,310.67,122.51Z"/><path class="cls-122" d="M311,120.47c-.1-9.32-.71-18.64-.9-28-.1-4.4-.39-8.8-.44-13.21a26.58,26.58,0,0,0-.53-5c-.55-2.7-2.34-3.93-4.84-3.44h0l-2.14,0c-3.57.1-4.8,1-5.44,4.52-2.93,16-6,32-8,48.13-.27,2.21.25,2.87,2.43,2.88,4.88,0,9.75,0,14.62,0,3.55,0,4.08-.44,4.88-3.91C311.21,121.9,311,121.18,311,120.47Zm-5.26,4.41c-3.37,0-6.76-.09-10.13,0-1.62.06-2-.42-1.69-1.93,1.39-7.72,2.7-15.46,4.06-23.18.56-3.13,1.16-6.25,1.75-9.37s1-3.48,4.23-3.58c.45,0,.91,0,1.36,0,1.62-.1,2.45.39,2.48,2.28.07,5.52.35,11,.56,16.55h0c.2,5.26.38,10.51.6,15.77C309.09,124.44,308.72,124.87,305.77,124.88Z"/><path class="cls-3" d="M307.55,80.88c.06,4.42.06,4.42-3.34,4.46-4.25,0-5.21.89-6,5.19-2.08,11-4.13,22-5.82,33.06-.13.87-.41,1.28-1.32,1.24-1.33,0-.75-.91-.68-1.52,1.29-11.26,3.3-22.4,5.28-33.55.83-4.64,1.71-9.28,2.57-13.93.52-2.81,1.1-3.31,4-3.35.78,0,1.56,0,2.34,0a2.49,2.49,0,0,1,2.62,2.56C307.36,77.32,307.47,79.59,307.55,80.88Z"/></g></g></svg>