<svg width="1091" height="655" viewBox="0 0 1091 655" fill="none" xmlns="http://www.w3.org/2000/svg">
<mask id="path-1-inside-1_244_9258" fill="white">
<path d="M522.275 436.628C494.418 484.878 450.26 521.604 397.742 540.202C345.224 558.799 287.794 558.047 235.781 538.081C183.768 518.116 140.586 480.246 114.002 431.284C87.4174 382.322 79.1759 325.481 90.7594 270.985C102.343 216.489 132.991 167.914 177.192 133.998C221.392 100.082 276.244 83.0502 331.881 85.966C387.518 88.8818 440.289 111.554 480.702 149.905C521.115 188.255 546.518 239.767 552.342 295.176L319.635 319.634L522.275 436.628Z"/>
</mask>
<path d="M522.275 436.628C494.418 484.878 450.26 521.604 397.742 540.202C345.224 558.799 287.794 558.047 235.781 538.081C183.768 518.116 140.586 480.246 114.002 431.284C87.4174 382.322 79.1759 325.481 90.7594 270.985C102.343 216.489 132.991 167.914 177.192 133.998C221.392 100.082 276.244 83.0502 331.881 85.966C387.518 88.8818 440.289 111.554 480.702 149.905C521.115 188.255 546.518 239.767 552.342 295.176L319.635 319.634L522.275 436.628Z" fill="#E83030" stroke="#FFFAF6" stroke-width="5.78941" mask="url(#path-1-inside-1_244_9258)"/>
<g filter="url(#filter0_d_244_9258)">
<path d="M578.217 292.692C584.868 362.835 569.945 422.531 531.142 478.645L318.195 320.021L578.217 292.692Z" fill="#2E282D"/>
<path d="M322.48 321.197L576.758 294.472C582.94 362.975 568.334 421.395 530.762 476.345L322.48 321.197Z" stroke="#FFFAF6" stroke-width="3.23449"/>
</g>
<mask id="path-4-outside-2_244_9258" maskUnits="userSpaceOnUse" x="448.648" y="368.748" width="101" height="40" fill="black">
<rect fill="white" x="448.648" y="368.748" width="101" height="40"/>
<path d="M455.905 398.748H449.835L450.43 394.689L450.095 394.726V388.656L451.361 388.731L452.069 384.076L452.739 376.666L451.697 376.889V370.819L456.314 371.229L463.613 370.819V376.889L463.203 376.852L463.762 385.305L464.432 388.731L466.033 388.656V394.726L465.512 394.689L466.257 398.748H460.15L459.74 394.242L456.202 394.019L455.905 398.748ZM456.761 385.305L456.538 389.066L459.219 388.954L458.735 384.076L457.953 378.825L456.761 385.305ZM467.047 379.347H473.117L472.335 390.556L473.117 398.748H467.047L467.457 389.364L467.047 379.347ZM466.526 372.681L473.787 370.819L473.154 377.932L467.27 378.416L466.526 372.681ZM480.836 379.347L487.092 378.937L486.31 385.007L482.065 384.188L479.905 384.56L479.868 389.364L480.501 398.748H474.394L475.027 390.556L474.208 379.347L479.979 378.937V380.874L480.836 379.347ZM500.999 390.556L503.383 398.748H498.356L496.978 396.253L495.972 398.785L487.37 399.195V393.125L488.227 393.2L488.376 389.364L487.966 379.347H489.009V378.937L495.228 379.347L495.935 380.501L495.712 371.229L501.781 370.819L500.999 390.556ZM495.972 392.939L496.121 389.364L496.01 384.56L493.999 384.188L493.701 384.225L493.254 390.556L493.552 393.721L494.781 393.833L495.972 392.939ZM510.51 379.347L516.766 378.937L515.984 385.007L511.739 384.188L509.579 384.56L509.542 389.364L510.175 398.748H504.068L504.701 390.556L503.882 379.347L509.654 378.937V380.874L510.51 379.347ZM531.94 385.007L531.084 384.933L530.674 390.556L531.456 398.748H530.339V399.195L524.083 398.785L517.045 399.195V393.125L517.901 393.2L518.05 389.364L517.64 379.347H518.683V378.937L524.902 379.347L531.94 378.937V385.007ZM525.609 393.87L525.796 389.364L525.609 384.411L523.673 384.188L523.375 384.225L522.928 390.556L523.226 393.721L525.312 393.944L525.609 393.87ZM548.356 385.007L547.499 384.933L547.35 388.768L547.723 398.785H546.717V399.195L540.498 398.785L539.791 397.631L540.014 406.903L533.907 407.313L534.727 387.576L532.343 379.384H537.37L538.748 381.879L539.754 379.347L548.356 378.937V385.007ZM542.025 393.87L542.472 387.576L542.137 384.411L540.945 384.3L539.754 385.156L539.605 388.768L539.716 393.572L541.69 393.944L542.025 393.87Z"/>
</mask>
<path d="M455.905 398.748H449.835L450.43 394.689L450.095 394.726V388.656L451.361 388.731L452.069 384.076L452.739 376.666L451.697 376.889V370.819L456.314 371.229L463.613 370.819V376.889L463.203 376.852L463.762 385.305L464.432 388.731L466.033 388.656V394.726L465.512 394.689L466.257 398.748H460.15L459.74 394.242L456.202 394.019L455.905 398.748ZM456.761 385.305L456.538 389.066L459.219 388.954L458.735 384.076L457.953 378.825L456.761 385.305ZM467.047 379.347H473.117L472.335 390.556L473.117 398.748H467.047L467.457 389.364L467.047 379.347ZM466.526 372.681L473.787 370.819L473.154 377.932L467.27 378.416L466.526 372.681ZM480.836 379.347L487.092 378.937L486.31 385.007L482.065 384.188L479.905 384.56L479.868 389.364L480.501 398.748H474.394L475.027 390.556L474.208 379.347L479.979 378.937V380.874L480.836 379.347ZM500.999 390.556L503.383 398.748H498.356L496.978 396.253L495.972 398.785L487.37 399.195V393.125L488.227 393.2L488.376 389.364L487.966 379.347H489.009V378.937L495.228 379.347L495.935 380.501L495.712 371.229L501.781 370.819L500.999 390.556ZM495.972 392.939L496.121 389.364L496.01 384.56L493.999 384.188L493.701 384.225L493.254 390.556L493.552 393.721L494.781 393.833L495.972 392.939ZM510.51 379.347L516.766 378.937L515.984 385.007L511.739 384.188L509.579 384.56L509.542 389.364L510.175 398.748H504.068L504.701 390.556L503.882 379.347L509.654 378.937V380.874L510.51 379.347ZM531.94 385.007L531.084 384.933L530.674 390.556L531.456 398.748H530.339V399.195L524.083 398.785L517.045 399.195V393.125L517.901 393.2L518.05 389.364L517.64 379.347H518.683V378.937L524.902 379.347L531.94 378.937V385.007ZM525.609 393.87L525.796 389.364L525.609 384.411L523.673 384.188L523.375 384.225L522.928 390.556L523.226 393.721L525.312 393.944L525.609 393.87ZM548.356 385.007L547.499 384.933L547.35 388.768L547.723 398.785H546.717V399.195L540.498 398.785L539.791 397.631L540.014 406.903L533.907 407.313L534.727 387.576L532.343 379.384H537.37L538.748 381.879L539.754 379.347L548.356 378.937V385.007ZM542.025 393.87L542.472 387.576L542.137 384.411L540.945 384.3L539.754 385.156L539.605 388.768L539.716 393.572L541.69 393.944L542.025 393.87Z" fill="white"/>
<path d="M455.905 398.748V399.744H456.84L456.898 398.811L455.905 398.748ZM449.835 398.748L448.849 398.603L448.682 399.744H449.835V398.748ZM450.43 394.689L451.416 394.834L451.603 393.557L450.32 393.699L450.43 394.689ZM450.095 394.726H449.099V395.839L450.205 395.716L450.095 394.726ZM450.095 388.656L450.154 387.662L449.099 387.6V388.656H450.095ZM451.361 388.731L451.303 389.725L452.209 389.778L452.346 388.881L451.361 388.731ZM452.069 384.076L453.053 384.226L453.058 384.196L453.061 384.166L452.069 384.076ZM452.739 376.666L453.731 376.755L453.853 375.408L452.531 375.692L452.739 376.666ZM451.697 376.889H450.701V378.121L451.905 377.863L451.697 376.889ZM451.697 370.819L451.785 369.827L450.701 369.731V370.819H451.697ZM456.314 371.229L456.226 372.221L456.298 372.227L456.37 372.223L456.314 371.229ZM463.613 370.819H464.609V369.766L463.557 369.825L463.613 370.819ZM463.613 376.889L463.523 377.881L464.609 377.98V376.889H463.613ZM463.203 376.852L463.293 375.86L462.133 375.755L462.21 376.917L463.203 376.852ZM463.762 385.305L462.768 385.371L462.772 385.434L462.785 385.496L463.762 385.305ZM464.432 388.731L463.455 388.922L463.62 389.766L464.478 389.726L464.432 388.731ZM466.033 388.656H467.029V387.613L465.987 387.662L466.033 388.656ZM466.033 394.726L465.962 395.72L467.029 395.796V394.726H466.033ZM465.512 394.689L465.583 393.696L464.3 393.604L464.533 394.869L465.512 394.689ZM466.257 398.748V399.744H467.452L467.236 398.568L466.257 398.748ZM460.15 398.748L459.158 398.838L459.24 399.744H460.15V398.748ZM459.74 394.242L460.732 394.152L460.655 393.302L459.803 393.248L459.74 394.242ZM456.202 394.019L456.265 393.025L455.271 392.962L455.209 393.956L456.202 394.019ZM456.761 385.305L455.782 385.125L455.771 385.185L455.767 385.246L456.761 385.305ZM456.538 389.066L455.543 389.007L455.478 390.107L456.579 390.061L456.538 389.066ZM459.219 388.954L459.26 389.949L460.314 389.905L460.21 388.856L459.219 388.954ZM458.735 384.076L459.726 383.978L459.723 383.953L459.72 383.929L458.735 384.076ZM457.953 378.825L458.938 378.679L456.973 378.645L457.953 378.825ZM455.905 397.752H449.835V399.744H455.905V397.752ZM450.82 398.893L451.416 394.834L449.445 394.544L448.849 398.603L450.82 398.893ZM450.32 393.699L449.985 393.737L450.205 395.716L450.54 395.679L450.32 393.699ZM451.091 394.726V388.656H449.099V394.726H451.091ZM450.037 389.651L451.303 389.725L451.42 387.737L450.154 387.662L450.037 389.651ZM452.346 388.881L453.053 384.226L451.084 383.926L450.377 388.581L452.346 388.881ZM453.061 384.166L453.731 376.755L451.747 376.576L451.077 383.986L453.061 384.166ZM452.531 375.692L451.488 375.915L451.905 377.863L452.948 377.639L452.531 375.692ZM452.692 376.889V370.819H450.701V376.889H452.692ZM451.609 371.811L456.226 372.221L456.402 370.237L451.785 369.827L451.609 371.811ZM456.37 372.223L463.669 371.813L463.557 369.825L456.258 370.234L456.37 372.223ZM462.617 370.819V376.889H464.609V370.819H462.617ZM463.703 375.897L463.293 375.86L463.113 377.844L463.523 377.881L463.703 375.897ZM462.21 376.917L462.768 385.371L464.756 385.239L464.197 376.786L462.21 376.917ZM462.785 385.496L463.455 388.922L465.409 388.54L464.739 385.114L462.785 385.496ZM464.478 389.726L466.08 389.651L465.987 387.662L464.386 387.736L464.478 389.726ZM465.038 388.656V394.726H467.029V388.656H465.038ZM466.104 393.733L465.583 393.696L465.441 395.682L465.962 395.72L466.104 393.733ZM464.533 394.869L465.277 398.928L467.236 398.568L466.492 394.509L464.533 394.869ZM466.257 397.752H460.15V399.744H466.257V397.752ZM461.141 398.658L460.732 394.152L458.748 394.332L459.158 398.838L461.141 398.658ZM459.803 393.248L456.265 393.025L456.14 395.013L459.677 395.236L459.803 393.248ZM455.209 393.956L454.911 398.685L456.898 398.811L457.196 394.081L455.209 393.956ZM455.767 385.246L455.543 389.007L457.532 389.125L457.755 385.364L455.767 385.246ZM456.579 390.061L459.26 389.949L459.177 387.959L456.496 388.071L456.579 390.061ZM460.21 388.856L459.726 383.978L457.744 384.174L458.228 389.053L460.21 388.856ZM459.72 383.929L458.938 378.679L456.968 378.972L457.75 384.223L459.72 383.929ZM456.973 378.645L455.782 385.125L457.74 385.485L458.932 379.006L456.973 378.645ZM467.047 379.347V378.351H466.01L466.052 379.387L467.047 379.347ZM473.117 379.347L474.11 379.416L474.185 378.351H473.117V379.347ZM472.335 390.556L471.341 390.486L471.336 390.568L471.343 390.65L472.335 390.556ZM473.117 398.748V399.744H474.212L474.108 398.653L473.117 398.748ZM467.047 398.748L466.052 398.705L466.007 399.744H467.047V398.748ZM467.457 389.364L468.452 389.407L468.453 389.365L468.452 389.323L467.457 389.364ZM466.526 372.681L466.278 371.716L465.425 371.935L465.538 372.809L466.526 372.681ZM473.787 370.819L474.779 370.907L474.904 369.505L473.54 369.855L473.787 370.819ZM473.154 377.932L473.236 378.924L474.072 378.855L474.146 378.02L473.154 377.932ZM467.27 378.416L466.283 378.544L466.405 379.486L467.352 379.408L467.27 378.416ZM467.047 380.343H473.117V378.351H467.047V380.343ZM472.123 379.277L471.341 390.486L473.328 390.625L474.11 379.416L472.123 379.277ZM471.343 390.65L472.125 398.843L474.108 398.653L473.326 390.461L471.343 390.65ZM473.117 397.752H467.047V399.744H473.117V397.752ZM468.042 398.791L468.452 389.407L466.462 389.321L466.052 398.705L468.042 398.791ZM468.452 389.323L468.042 379.306L466.052 379.387L466.462 389.405L468.452 389.323ZM466.773 373.646L474.034 371.784L473.54 369.855L466.278 371.716L466.773 373.646ZM472.795 370.731L472.162 377.843L474.146 378.02L474.779 370.907L472.795 370.731ZM473.072 376.939L467.189 377.423L467.352 379.408L473.236 378.924L473.072 376.939ZM468.258 378.288L467.513 372.553L465.538 372.809L466.283 378.544L468.258 378.288ZM480.836 379.347L480.771 378.353L480.232 378.388L479.967 378.86L480.836 379.347ZM487.092 378.937L488.08 379.064L488.234 377.864L487.027 377.943L487.092 378.937ZM486.31 385.007L486.121 385.985L487.162 386.186L487.298 385.134L486.31 385.007ZM482.065 384.188L482.254 383.21L482.075 383.175L481.896 383.206L482.065 384.188ZM479.905 384.56L479.736 383.579L478.916 383.72L478.909 384.552L479.905 384.56ZM479.868 389.364L478.872 389.356L478.872 389.394L478.874 389.431L479.868 389.364ZM480.501 398.748V399.744H481.566L481.494 398.681L480.501 398.748ZM474.394 398.748L473.401 398.671L473.318 399.744H474.394V398.748ZM475.027 390.556L476.02 390.632L476.025 390.558L476.02 390.483L475.027 390.556ZM474.208 379.347L474.137 378.353L473.142 378.424L473.214 379.419L474.208 379.347ZM479.979 378.937H480.975V377.868L479.909 377.944L479.979 378.937ZM479.979 380.874H478.984V384.684L480.848 381.361L479.979 380.874ZM480.901 380.341L487.157 379.931L487.027 377.943L480.771 378.353L480.901 380.341ZM486.104 378.81L485.322 384.88L487.298 385.134L488.08 379.064L486.104 378.81ZM486.499 384.029L482.254 383.21L481.876 385.166L486.121 385.985L486.499 384.029ZM481.896 383.206L479.736 383.579L480.074 385.542L482.234 385.169L481.896 383.206ZM478.909 384.552L478.872 389.356L480.864 389.372L480.901 384.568L478.909 384.552ZM478.874 389.431L479.507 398.815L481.494 398.681L480.861 389.297L478.874 389.431ZM480.501 397.752H474.394V399.744H480.501V397.752ZM475.387 398.825L476.02 390.632L474.034 390.479L473.401 398.671L475.387 398.825ZM476.02 390.483L475.201 379.274L473.214 379.419L474.034 390.628L476.02 390.483ZM474.278 380.34L480.05 379.931L479.909 377.944L474.137 378.353L474.278 380.34ZM478.984 378.937V380.874H480.975V378.937H478.984ZM480.848 381.361L481.705 379.834L479.967 378.86L479.111 380.386L480.848 381.361ZM500.999 390.556L500.004 390.516L499.998 390.678L500.043 390.834L500.999 390.556ZM503.383 398.748V399.744H504.71L504.339 398.47L503.383 398.748ZM498.356 398.748L497.484 399.229L497.768 399.744H498.356V398.748ZM496.978 396.253L497.849 395.772L496.83 393.926L496.052 395.886L496.978 396.253ZM495.972 398.785L496.02 399.78L496.661 399.749L496.898 399.153L495.972 398.785ZM487.37 399.195H486.374V400.239L487.418 400.19L487.37 399.195ZM487.37 393.125L487.456 392.133L486.374 392.039V393.125H487.37ZM488.227 393.2L488.14 394.192L489.181 394.282L489.222 393.238L488.227 393.2ZM488.376 389.364L489.371 389.403L489.372 389.363L489.371 389.323L488.376 389.364ZM487.966 379.347V378.351H486.929L486.971 379.387L487.966 379.347ZM489.009 379.347V380.343H490.005V379.347H489.009ZM489.009 378.937L489.074 377.943L488.013 377.874V378.937H489.009ZM495.228 379.347L496.077 378.826L495.807 378.387L495.293 378.353L495.228 379.347ZM495.935 380.501L495.086 381.022L497.02 384.177L496.931 380.477L495.935 380.501ZM495.712 371.229L495.645 370.235L494.693 370.299L494.716 371.253L495.712 371.229ZM501.781 370.819L502.777 370.859L502.82 369.751L501.714 369.826L501.781 370.819ZM495.972 392.939L496.57 393.736L496.948 393.452L496.967 392.98L495.972 392.939ZM496.121 389.364L497.116 389.405L497.118 389.373L497.117 389.341L496.121 389.364ZM496.01 384.56L497.005 384.537L496.986 383.728L496.191 383.581L496.01 384.56ZM493.999 384.188L494.18 383.209L494.028 383.18L493.875 383.2L493.999 384.188ZM493.701 384.225L493.577 383.237L492.765 383.338L492.707 384.155L493.701 384.225ZM493.254 390.556L492.26 390.485L492.255 390.567L492.262 390.649L493.254 390.556ZM493.552 393.721L492.56 393.814L492.638 394.638L493.462 394.713L493.552 393.721ZM494.781 393.833L494.69 394.824L495.072 394.859L495.378 394.629L494.781 393.833ZM500.043 390.834L502.427 399.026L504.339 398.47L501.956 390.277L500.043 390.834ZM503.383 397.752H498.356V399.744H503.383V397.752ZM499.227 398.267L497.849 395.772L496.106 396.734L497.484 399.229L499.227 398.267ZM496.052 395.886L495.047 398.418L496.898 399.153L497.903 396.621L496.052 395.886ZM495.925 397.791L487.323 398.2L487.418 400.19L496.02 399.78L495.925 397.791ZM488.366 399.195V393.125H486.374V399.195H488.366ZM487.284 394.117L488.14 394.192L488.313 392.207L487.456 392.133L487.284 394.117ZM489.222 393.238L489.371 389.403L487.381 389.325L487.232 393.161L489.222 393.238ZM489.371 389.323L488.961 379.306L486.971 379.387L487.381 389.405L489.371 389.323ZM487.966 380.343H489.009V378.351H487.966V380.343ZM490.005 379.347V378.937H488.013V379.347H490.005ZM488.943 379.931L495.162 380.34L495.293 378.353L489.074 377.943L488.943 379.931ZM494.378 379.867L495.086 381.022L496.784 379.981L496.077 378.826L494.378 379.867ZM496.931 380.477L496.707 371.205L494.716 371.253L494.939 380.525L496.931 380.477ZM495.779 372.222L501.849 371.813L501.714 369.826L495.645 370.235L495.779 372.222ZM500.786 370.78L500.004 390.516L501.995 390.595L502.777 370.859L500.786 370.78ZM496.967 392.98L497.116 389.405L495.126 389.322L494.977 392.897L496.967 392.98ZM497.117 389.341L497.005 384.537L495.014 384.583L495.126 389.387L497.117 389.341ZM496.191 383.581L494.18 383.209L493.817 385.167L495.828 385.539L496.191 383.581ZM493.875 383.2L493.577 383.237L493.824 385.213L494.122 385.176L493.875 383.2ZM492.707 384.155L492.26 390.485L494.247 390.626L494.694 384.295L492.707 384.155ZM492.262 390.649L492.56 393.814L494.543 393.628L494.245 390.462L492.262 390.649ZM493.462 394.713L494.69 394.824L494.871 392.841L493.642 392.729L493.462 394.713ZM495.378 394.629L496.57 393.736L495.375 392.142L494.183 393.036L495.378 394.629ZM510.51 379.347L510.445 378.353L509.906 378.388L509.642 378.86L510.51 379.347ZM516.766 378.937L517.754 379.064L517.909 377.864L516.701 377.943L516.766 378.937ZM515.984 385.007L515.796 385.985L516.837 386.186L516.972 385.134L515.984 385.007ZM511.739 384.188L511.928 383.21L511.749 383.175L511.57 383.206L511.739 384.188ZM509.579 384.56L509.41 383.579L508.59 383.72L508.584 384.552L509.579 384.56ZM509.542 389.364L508.546 389.356L508.546 389.394L508.549 389.431L509.542 389.364ZM510.175 398.748V399.744H511.241L511.169 398.681L510.175 398.748ZM504.068 398.748L503.075 398.671L502.992 399.744H504.068V398.748ZM504.701 390.556L505.694 390.632L505.7 390.558L505.694 390.483L504.701 390.556ZM503.882 379.347L503.811 378.353L502.816 378.424L502.889 379.419L503.882 379.347ZM509.654 378.937H510.65V377.868L509.583 377.944L509.654 378.937ZM509.654 380.874H508.658V384.684L510.522 381.361L509.654 380.874ZM510.575 380.341L516.832 379.931L516.701 377.943L510.445 378.353L510.575 380.341ZM515.779 378.81L514.997 384.88L516.972 385.134L517.754 379.064L515.779 378.81ZM516.173 384.029L511.928 383.21L511.551 385.166L515.796 385.985L516.173 384.029ZM511.57 383.206L509.41 383.579L509.749 385.542L511.909 385.169L511.57 383.206ZM508.584 384.552L508.546 389.356L510.538 389.372L510.575 384.568L508.584 384.552ZM508.549 389.431L509.182 398.815L511.169 398.681L510.536 389.297L508.549 389.431ZM510.175 397.752H504.068V399.744H510.175V397.752ZM505.061 398.825L505.694 390.632L503.708 390.479L503.075 398.671L505.061 398.825ZM505.694 390.483L504.875 379.274L502.889 379.419L503.708 390.628L505.694 390.483ZM503.952 380.34L509.724 379.931L509.583 377.944L503.811 378.353L503.952 380.34ZM508.658 378.937V380.874H510.65V378.937H508.658ZM510.522 381.361L511.379 379.834L509.642 378.86L508.785 380.386L510.522 381.361ZM531.94 385.007L531.854 385.999L532.936 386.093V385.007H531.94ZM531.084 384.933L531.17 383.94L530.164 383.853L530.09 384.86L531.084 384.933ZM530.674 390.556L529.681 390.483L529.675 390.567L529.683 390.65L530.674 390.556ZM531.456 398.748V399.744H532.551L532.447 398.653L531.456 398.748ZM530.339 398.748V397.752H529.343V398.748H530.339ZM530.339 399.195L530.274 400.189L531.335 400.258V399.195H530.339ZM524.083 398.785L524.148 397.792L524.086 397.788L524.025 397.791L524.083 398.785ZM517.045 399.195H516.049V400.25L517.102 400.189L517.045 399.195ZM517.045 393.125L517.131 392.133L516.049 392.039V393.125H517.045ZM517.901 393.2L517.815 394.192L518.856 394.282L518.896 393.238L517.901 393.2ZM518.05 389.364L519.045 389.403L519.047 389.363L519.045 389.323L518.05 389.364ZM517.64 379.347V378.351H516.603L516.645 379.387L517.64 379.347ZM518.683 379.347V380.343H519.679V379.347H518.683ZM518.683 378.937L518.749 377.943L517.687 377.874V378.937H518.683ZM524.902 379.347L524.836 380.34L524.898 380.345L524.96 380.341L524.902 379.347ZM531.94 378.937H532.936V377.882L531.882 377.943L531.94 378.937ZM525.609 393.87L525.851 394.836L526.574 394.655L526.604 393.911L525.609 393.87ZM525.796 389.364L526.791 389.405L526.792 389.366L526.791 389.327L525.796 389.364ZM525.609 384.411L526.605 384.374L526.573 383.52L525.724 383.422L525.609 384.411ZM523.673 384.188L523.787 383.198L523.668 383.185L523.55 383.2L523.673 384.188ZM523.375 384.225L523.252 383.237L522.439 383.338L522.382 384.155L523.375 384.225ZM522.928 390.556L521.935 390.485L521.929 390.567L521.937 390.649L522.928 390.556ZM523.226 393.721L522.235 393.814L522.311 394.624L523.12 394.711L523.226 393.721ZM525.312 393.944L525.205 394.934L525.381 394.953L525.553 394.91L525.312 393.944ZM532.026 384.015L531.17 383.94L530.997 385.925L531.854 385.999L532.026 384.015ZM530.09 384.86L529.681 390.483L531.667 390.628L532.077 385.005L530.09 384.86ZM529.683 390.65L530.465 398.843L532.447 398.653L531.665 390.461L529.683 390.65ZM531.456 397.752H530.339V399.744H531.456V397.752ZM529.343 398.748V399.195H531.335V398.748H529.343ZM530.404 398.201L524.148 397.792L524.018 399.779L530.274 400.189L530.404 398.201ZM524.025 397.791L516.987 398.201L517.102 400.189L524.141 399.779L524.025 397.791ZM518.04 399.195V393.125H516.049V399.195H518.04ZM516.958 394.117L517.815 394.192L517.987 392.207L517.131 392.133L516.958 394.117ZM518.896 393.238L519.045 389.403L517.055 389.325L516.906 393.161L518.896 393.238ZM519.045 389.323L518.635 379.306L516.645 379.387L517.055 389.405L519.045 389.323ZM517.64 380.343H518.683V378.351H517.64V380.343ZM519.679 379.347V378.937H517.687V379.347H519.679ZM518.618 379.931L524.836 380.34L524.967 378.353L518.749 377.943L518.618 379.931ZM524.96 380.341L531.998 379.931L531.882 377.943L524.844 378.353L524.96 380.341ZM530.944 378.937V385.007H532.936V378.937H530.944ZM526.604 393.911L526.791 389.405L524.801 389.323L524.614 393.829L526.604 393.911ZM526.791 389.327L526.605 384.374L524.614 384.449L524.801 389.401L526.791 389.327ZM525.724 383.422L523.787 383.198L523.559 385.177L525.495 385.401L525.724 383.422ZM523.55 383.2L523.252 383.237L523.499 385.213L523.797 385.176L523.55 383.2ZM522.382 384.155L521.935 390.485L523.922 390.626L524.369 384.295L522.382 384.155ZM521.937 390.649L522.235 393.814L524.218 393.628L523.92 390.462L521.937 390.649ZM523.12 394.711L525.205 394.934L525.418 392.954L523.332 392.731L523.12 394.711ZM525.553 394.91L525.851 394.836L525.368 392.904L525.07 392.978L525.553 394.91ZM548.356 385.007L548.27 385.999L549.352 386.093V385.007H548.356ZM547.499 384.933L547.586 383.94L546.545 383.85L546.504 384.894L547.499 384.933ZM547.35 388.768L546.355 388.729L546.354 388.767L546.355 388.805L547.35 388.768ZM547.723 398.785V399.781H548.756L548.718 398.748L547.723 398.785ZM546.717 398.785V397.789H545.721V398.785H546.717ZM546.717 399.195L546.652 400.189L547.713 400.259V399.195H546.717ZM540.498 398.785L539.649 399.306L539.919 399.745L540.433 399.779L540.498 398.785ZM539.791 397.631L540.64 397.11L538.706 393.955L538.795 397.655L539.791 397.631ZM540.014 406.903L540.081 407.897L541.033 407.833L541.01 406.879L540.014 406.903ZM533.907 407.313L532.912 407.272L532.866 408.381L533.974 408.307L533.907 407.313ZM534.727 387.576L535.722 387.618L535.728 387.455L535.683 387.298L534.727 387.576ZM532.343 379.384V378.388H531.016L531.387 379.662L532.343 379.384ZM537.37 379.384L538.242 378.903L537.958 378.388H537.37V379.384ZM538.748 381.879L537.877 382.36L538.896 384.206L539.674 382.247L538.748 381.879ZM539.754 379.347L539.706 378.352L539.065 378.383L538.828 378.979L539.754 379.347ZM548.356 378.937H549.352V377.893L548.308 377.942L548.356 378.937ZM542.025 393.87L542.241 394.842L542.966 394.681L543.019 393.94L542.025 393.87ZM542.472 387.576L543.465 387.647L543.472 387.559L543.462 387.472L542.472 387.576ZM542.137 384.411L543.127 384.306L543.041 383.496L542.23 383.42L542.137 384.411ZM540.945 384.3L541.038 383.308L540.667 383.273L540.364 383.491L540.945 384.3ZM539.754 385.156L539.172 384.347L538.779 384.63L538.759 385.115L539.754 385.156ZM539.605 388.768L538.61 388.727L538.608 388.759L538.609 388.791L539.605 388.768ZM539.716 393.572L538.721 393.595L538.74 394.401L539.532 394.55L539.716 393.572ZM541.69 393.944L541.505 394.923L541.706 394.961L541.906 394.916L541.69 393.944ZM548.442 384.015L547.586 383.94L547.413 385.925L548.27 385.999L548.442 384.015ZM546.504 384.894L546.355 388.729L548.345 388.807L548.494 384.971L546.504 384.894ZM546.355 388.805L546.728 398.822L548.718 398.748L548.346 388.731L546.355 388.805ZM547.723 397.789H546.717V399.781H547.723V397.789ZM545.721 398.785V399.195H547.713V398.785H545.721ZM546.783 398.201L540.564 397.792L540.433 399.779L546.652 400.189L546.783 398.201ZM541.348 398.265L540.64 397.11L538.942 398.151L539.649 399.306L541.348 398.265ZM538.795 397.655L539.019 406.927L541.01 406.879L540.787 397.607L538.795 397.655ZM539.948 405.91L533.841 406.319L533.974 408.307L540.081 407.897L539.948 405.91ZM534.902 407.354L535.722 387.618L533.732 387.535L532.912 407.272L534.902 407.354ZM535.683 387.298L533.299 379.106L531.387 379.662L533.77 387.855L535.683 387.298ZM532.343 380.38H537.37V378.388H532.343V380.38ZM536.499 379.865L537.877 382.36L539.62 381.398L538.242 378.903L536.499 379.865ZM539.674 382.247L540.679 379.714L538.828 378.979L537.823 381.511L539.674 382.247ZM539.801 380.342L548.403 379.932L548.308 377.942L539.706 378.352L539.801 380.342ZM547.36 378.937V385.007H549.352V378.937H547.36ZM543.019 393.94L543.465 387.647L541.479 387.506L541.032 393.799L543.019 393.94ZM543.462 387.472L543.127 384.306L541.147 384.516L541.482 387.681L543.462 387.472ZM542.23 383.42L541.038 383.308L540.852 385.291L542.044 385.403L542.23 383.42ZM540.364 383.491L539.172 384.347L540.335 385.965L541.527 385.108L540.364 383.491ZM538.759 385.115L538.61 388.727L540.6 388.809L540.749 385.197L538.759 385.115ZM538.609 388.791L538.721 393.595L540.712 393.549L540.6 388.745L538.609 388.791ZM539.532 394.55L541.505 394.923L541.875 392.966L539.901 392.593L539.532 394.55ZM541.906 394.916L542.241 394.842L541.809 392.898L541.474 392.972L541.906 394.916Z" fill="#2E282D" mask="url(#path-4-outside-2_244_9258)"/>
<mask id="path-6-outside-3_244_9258" maskUnits="userSpaceOnUse" x="462.564" y="318.848" width="76" height="44" fill="black">
<rect fill="white" x="462.564" y="318.848" width="76" height="44"/>
<path d="M476.788 321.321L475.641 341.027L476.788 359.848H468.238L468.811 339.307L468.498 328.776L464.171 329.245V320.747L475.745 321.321H476.788ZM487.968 352.653L494.38 353.122L494.641 353.018L495.058 339.307L494.693 328.567L488.333 328.15L488.02 328.202L487.29 341.027L487.968 352.653ZM481.347 320.747L490.053 321.321L503.66 320.747V329.245L502.513 329.193L501.835 341.027L502.982 359.848H501.418V360.473L488.906 359.9L479.053 360.473V351.975L480.148 352.028L480.461 339.307L479.887 321.321H481.347V320.747ZM528.927 321.321L535.756 320.747L524.443 339.307L512.817 359.848H506.04L518.344 341.027L528.927 321.321ZM516.78 337.847L511.514 337.482L505.571 337.847V332.738L506.301 332.79L506.405 329.558L506.092 321.112H506.926V320.747L512.192 321.112L518.135 320.747V325.908L517.405 325.804L517.04 330.548L517.718 337.482H516.78V337.847ZM510.523 330.548L510.784 333.259L512.557 333.416L512.765 333.364L512.974 329.558L512.765 325.387L511.149 325.179L510.888 325.231L510.523 330.548ZM537.06 349.056L536.278 349.004L535.965 353.748L536.643 360.682H535.704V361.047L530.439 360.682L524.495 361.047V355.938L525.173 355.99L525.33 352.757L524.965 344.312H525.851V343.947L531.116 344.312L537.06 343.947V349.056ZM531.69 356.563L531.846 352.757L531.69 348.587L530.074 348.378L529.813 348.43L529.448 353.748L529.709 356.407L531.429 356.615L531.69 356.563Z"/>
</mask>
<path d="M476.788 321.321L475.641 341.027L476.788 359.848H468.238L468.811 339.307L468.498 328.776L464.171 329.245V320.747L475.745 321.321H476.788ZM487.968 352.653L494.38 353.122L494.641 353.018L495.058 339.307L494.693 328.567L488.333 328.15L488.02 328.202L487.29 341.027L487.968 352.653ZM481.347 320.747L490.053 321.321L503.66 320.747V329.245L502.513 329.193L501.835 341.027L502.982 359.848H501.418V360.473L488.906 359.9L479.053 360.473V351.975L480.148 352.028L480.461 339.307L479.887 321.321H481.347V320.747ZM528.927 321.321L535.756 320.747L524.443 339.307L512.817 359.848H506.04L518.344 341.027L528.927 321.321ZM516.78 337.847L511.514 337.482L505.571 337.847V332.738L506.301 332.79L506.405 329.558L506.092 321.112H506.926V320.747L512.192 321.112L518.135 320.747V325.908L517.405 325.804L517.04 330.548L517.718 337.482H516.78V337.847ZM510.523 330.548L510.784 333.259L512.557 333.416L512.765 333.364L512.974 329.558L512.765 325.387L511.149 325.179L510.888 325.231L510.523 330.548ZM537.06 349.056L536.278 349.004L535.965 353.748L536.643 360.682H535.704V361.047L530.439 360.682L524.495 361.047V355.938L525.173 355.99L525.33 352.757L524.965 344.312H525.851V343.947L531.116 344.312L537.06 343.947V349.056ZM531.69 356.563L531.846 352.757L531.69 348.587L530.074 348.378L529.813 348.43L529.448 353.748L529.709 356.407L531.429 356.615L531.69 356.563Z" fill="white"/>
<path d="M476.788 321.321L477.935 321.387L478.005 320.172H476.788V321.321ZM475.641 341.027L474.493 340.961L474.489 341.029L474.494 341.097L475.641 341.027ZM476.788 359.848V360.997H478.009L477.935 359.778L476.788 359.848ZM468.238 359.848L467.089 359.816L467.056 360.997H468.238V359.848ZM468.811 339.307L469.96 339.339L469.961 339.306L469.96 339.273L468.811 339.307ZM468.498 328.776L469.647 328.742L469.61 327.499L468.374 327.633L468.498 328.776ZM464.171 329.245H463.022V330.525L464.295 330.387L464.171 329.245ZM464.171 320.747L464.228 319.6L463.022 319.54V320.747H464.171ZM475.745 321.321L475.688 322.468L475.716 322.47H475.745V321.321ZM475.64 321.254L474.493 340.961L476.788 341.094L477.935 321.387L475.64 321.254ZM474.494 341.097L475.641 359.918L477.935 359.778L476.788 340.957L474.494 341.097ZM476.788 358.699H468.238V360.997H476.788V358.699ZM469.386 359.88L469.96 339.339L467.662 339.275L467.089 359.816L469.386 359.88ZM469.96 339.273L469.647 328.742L467.35 328.81L467.662 339.341L469.96 339.273ZM468.374 327.633L464.047 328.103L464.295 330.387L468.622 329.918L468.374 327.633ZM465.32 329.245V320.747H463.022V329.245H465.32ZM464.114 321.895L475.688 322.468L475.802 320.173L464.228 319.6L464.114 321.895ZM475.745 322.47H476.788V320.172H475.745V322.47ZM487.968 352.653L486.821 352.72L486.879 353.726L487.884 353.799L487.968 352.653ZM494.38 353.122L494.296 354.268L494.561 354.288L494.807 354.189L494.38 353.122ZM494.641 353.018L495.068 354.085L495.767 353.805L495.79 353.053L494.641 353.018ZM495.058 339.307L496.207 339.342L496.208 339.305L496.206 339.268L495.058 339.307ZM494.693 328.567L495.842 328.528L495.806 327.489L494.768 327.421L494.693 328.567ZM488.333 328.15L488.408 327.004L488.275 326.995L488.144 327.017L488.333 328.15ZM488.02 328.202L487.831 327.069L486.925 327.22L486.873 328.137L488.02 328.202ZM487.29 341.027L486.143 340.962L486.139 341.028L486.143 341.094L487.29 341.027ZM481.347 320.747L481.422 319.601L480.198 319.52V320.747H481.347ZM490.053 321.321L489.978 322.467L490.04 322.471L490.102 322.469L490.053 321.321ZM503.66 320.747H504.809V319.549L503.612 319.599L503.66 320.747ZM503.66 329.245L503.608 330.393L504.809 330.448V329.245H503.66ZM502.513 329.193L502.565 328.045L501.431 327.993L501.366 329.127L502.513 329.193ZM501.835 341.027L500.688 340.962L500.684 341.029L500.689 341.097L501.835 341.027ZM502.982 359.848V360.997H504.204L504.129 359.778L502.982 359.848ZM501.418 359.848V358.699H500.269V359.848H501.418ZM501.418 360.473L501.366 361.621L502.567 361.676V360.473H501.418ZM488.906 359.9L488.959 358.752L488.899 358.749L488.839 358.753L488.906 359.9ZM479.053 360.473H477.904V361.691L479.12 361.62L479.053 360.473ZM479.053 351.975L479.108 350.828L477.904 350.77V351.975H479.053ZM480.148 352.028L480.093 353.175L481.268 353.231L481.296 352.056L480.148 352.028ZM480.461 339.307L481.609 339.335L481.61 339.303L481.609 339.27L480.461 339.307ZM479.887 321.321V320.172H478.701L478.739 321.357L479.887 321.321ZM481.347 321.321V322.47H482.496V321.321H481.347ZM487.884 353.799L494.296 354.268L494.464 351.976L488.052 351.507L487.884 353.799ZM494.807 354.189L495.068 354.085L494.214 351.951L493.954 352.055L494.807 354.189ZM495.79 353.053L496.207 339.342L493.91 339.272L493.492 352.983L495.79 353.053ZM496.206 339.268L495.842 328.528L493.545 328.606L493.91 339.346L496.206 339.268ZM494.768 327.421L488.408 327.004L488.258 329.297L494.618 329.714L494.768 327.421ZM488.144 327.017L487.831 327.069L488.209 329.336L488.522 329.284L488.144 327.017ZM486.873 328.137L486.143 340.962L488.437 341.093L489.167 328.268L486.873 328.137ZM486.143 341.094L486.821 352.72L489.115 352.586L488.437 340.96L486.143 341.094ZM481.271 321.894L489.978 322.467L490.129 320.174L481.422 319.601L481.271 321.894ZM490.102 322.469L503.709 321.895L503.612 319.599L490.005 320.173L490.102 322.469ZM502.511 320.747V329.245H504.809V320.747H502.511ZM503.712 328.097L502.565 328.045L502.461 330.341L503.608 330.393L503.712 328.097ZM501.366 329.127L500.688 340.962L502.983 341.093L503.66 329.259L501.366 329.127ZM500.689 341.097L501.835 359.918L504.129 359.778L502.982 340.957L500.689 341.097ZM502.982 358.699H501.418V360.997H502.982V358.699ZM500.269 359.848V360.473H502.567V359.848H500.269ZM501.471 359.325L488.959 358.752L488.854 361.048L501.366 361.621L501.471 359.325ZM488.839 358.753L478.986 359.326L479.12 361.62L488.973 361.047L488.839 358.753ZM480.202 360.473V351.975H477.904V360.473H480.202ZM478.998 353.123L480.093 353.175L480.202 350.88L479.108 350.828L478.998 353.123ZM481.296 352.056L481.609 339.335L479.312 339.279L478.999 351.999L481.296 352.056ZM481.609 339.27L481.036 321.284L478.739 321.357L479.312 339.344L481.609 339.27ZM479.887 322.47H481.347V320.172H479.887V322.47ZM482.496 321.321V320.747H480.198V321.321H482.496ZM528.927 321.321L528.831 320.176L528.209 320.228L527.914 320.777L528.927 321.321ZM535.756 320.747L536.737 321.345L537.915 319.413L535.66 319.602L535.756 320.747ZM524.443 339.307L523.462 338.709L523.452 338.725L523.443 338.741L524.443 339.307ZM512.817 359.848V360.997H513.487L513.817 360.414L512.817 359.848ZM506.04 359.848L505.078 359.219L503.916 360.997H506.04V359.848ZM518.344 341.027L519.305 341.656L519.332 341.615L519.356 341.571L518.344 341.027ZM516.78 337.847L516.7 338.993L517.929 339.079V337.847H516.78ZM511.514 337.482L511.593 336.336L511.519 336.331L511.444 336.335L511.514 337.482ZM505.571 337.847H504.422V339.069L505.641 338.994L505.571 337.847ZM505.571 332.738L505.653 331.592L504.422 331.504V332.738H505.571ZM506.301 332.79L506.219 333.936L507.411 334.021L507.449 332.827L506.301 332.79ZM506.405 329.558L507.553 329.595L507.555 329.555L507.553 329.515L506.405 329.558ZM506.092 321.112V319.963H504.9L504.944 321.155L506.092 321.112ZM506.926 321.112V322.261H508.075V321.112H506.926ZM506.926 320.747L507.006 319.601L505.777 319.516V320.747H506.926ZM512.192 321.112L512.112 322.258L512.187 322.264L512.262 322.259L512.192 321.112ZM518.135 320.747H519.284V319.525L518.065 319.6L518.135 320.747ZM518.135 325.908L517.973 327.046L519.284 327.233V325.908H518.135ZM517.405 325.804L517.568 324.667L516.354 324.493L516.259 325.716L517.405 325.804ZM517.04 330.548L515.895 330.46L515.887 330.56L515.897 330.66L517.04 330.548ZM517.718 337.482V338.631H518.985L518.862 337.37L517.718 337.482ZM516.78 337.482V336.333H515.63V337.482H516.78ZM510.523 330.548L509.377 330.47L509.371 330.564L509.38 330.658L510.523 330.548ZM510.784 333.259L509.64 333.369L509.732 334.32L510.683 334.404L510.784 333.259ZM512.557 333.416L512.456 334.56L512.648 334.577L512.835 334.531L512.557 333.416ZM512.765 333.364L513.044 334.478L513.866 334.273L513.913 333.426L512.765 333.364ZM512.974 329.558L514.121 329.621L514.124 329.561L514.121 329.5L512.974 329.558ZM512.765 325.387L513.913 325.33L513.865 324.37L512.912 324.248L512.765 325.387ZM511.149 325.179L511.296 324.039L511.109 324.015L510.924 324.052L511.149 325.179ZM510.888 325.231L510.663 324.104L509.802 324.276L509.742 325.152L510.888 325.231ZM537.06 349.056L536.983 350.202L538.209 350.284V349.056H537.06ZM536.278 349.004L536.354 347.857L535.207 347.781L535.131 348.928L536.278 349.004ZM535.965 353.748L534.818 353.672L534.812 353.766L534.821 353.86L535.965 353.748ZM536.643 360.682V361.831H537.909L537.786 360.57L536.643 360.682ZM535.704 360.682V359.533H534.555V360.682H535.704ZM535.704 361.047L535.625 362.193L536.853 362.278V361.047H535.704ZM530.439 360.682L530.518 359.535L530.443 359.53L530.368 359.535L530.439 360.682ZM524.495 361.047H523.346V362.269L524.566 362.194L524.495 361.047ZM524.495 355.938L524.584 354.792L523.346 354.697V355.938H524.495ZM525.173 355.99L525.085 357.135L526.264 357.226L526.321 356.045L525.173 355.99ZM525.33 352.757L526.477 352.813L526.48 352.76L526.478 352.708L525.33 352.757ZM524.965 344.312V343.163H523.765L523.817 344.361L524.965 344.312ZM525.851 344.312V345.461H527V344.312H525.851ZM525.851 343.947L525.93 342.8L524.702 342.715V343.947H525.851ZM531.116 344.312L531.037 345.458L531.112 345.463L531.187 345.459L531.116 344.312ZM537.06 343.947H538.209V342.725L536.989 342.8L537.06 343.947ZM531.69 356.563L531.915 357.69L532.801 357.513L532.838 356.61L531.69 356.563ZM531.846 352.757L532.994 352.805L532.996 352.76L532.995 352.714L531.846 352.757ZM531.69 348.587L532.838 348.544L532.802 347.572L531.837 347.447L531.69 348.587ZM530.074 348.378L530.221 347.239L530.033 347.214L529.848 347.251L530.074 348.378ZM529.813 348.43L529.588 347.304L528.727 347.476L528.667 348.352L529.813 348.43ZM529.448 353.748L528.302 353.669L528.295 353.765L528.305 353.86L529.448 353.748ZM529.709 356.407L528.565 356.519L528.655 357.437L529.57 357.548L529.709 356.407ZM531.429 356.615L531.291 357.756L531.474 357.778L531.655 357.742L531.429 356.615ZM529.023 322.466L535.852 321.892L535.66 319.602L528.831 320.176L529.023 322.466ZM534.775 320.149L523.462 338.709L525.424 339.905L536.737 321.345L534.775 320.149ZM523.443 338.741L511.817 359.282L513.817 360.414L525.443 339.873L523.443 338.741ZM512.817 358.699H506.04V360.997H512.817V358.699ZM507.002 360.476L519.305 341.656L517.382 340.399L505.078 359.219L507.002 360.476ZM519.356 341.571L529.939 321.864L527.914 320.777L517.331 340.484L519.356 341.571ZM516.859 336.701L511.593 336.336L511.435 338.629L516.7 338.993L516.859 336.701ZM511.444 336.335L505.5 336.7L505.641 338.994L511.584 338.629L511.444 336.335ZM506.72 337.847V332.738H504.422V337.847H506.72ZM505.489 333.884L506.219 333.936L506.383 331.644L505.653 331.592L505.489 333.884ZM507.449 332.827L507.553 329.595L505.256 329.521L505.152 332.753L507.449 332.827ZM507.553 329.515L507.24 321.07L504.944 321.155L505.257 329.6L507.553 329.515ZM506.092 322.261H506.926V319.963H506.092V322.261ZM508.075 321.112V320.747H505.777V321.112H508.075ZM506.847 321.894L512.112 322.258L512.271 319.966L507.006 319.601L506.847 321.894ZM512.262 322.259L518.205 321.894L518.065 319.6L512.121 319.965L512.262 322.259ZM516.986 320.747V325.908H519.284V320.747H516.986ZM518.298 324.771L517.568 324.667L517.243 326.942L517.973 327.046L518.298 324.771ZM516.259 325.716L515.895 330.46L518.186 330.637L518.551 325.892L516.259 325.716ZM515.897 330.66L516.574 337.594L518.862 337.37L518.184 330.437L515.897 330.66ZM517.718 336.333H516.78V338.631H517.718V336.333ZM515.63 337.482V337.847H517.929V337.482H515.63ZM509.38 330.658L509.64 333.369L511.928 333.149L511.667 330.438L509.38 330.658ZM510.683 334.404L512.456 334.56L512.658 332.271L510.885 332.115L510.683 334.404ZM512.835 334.531L513.044 334.478L512.487 332.249L512.278 332.301L512.835 334.531ZM513.913 333.426L514.121 329.621L511.826 329.495L511.618 333.301L513.913 333.426ZM514.121 329.5L513.913 325.33L511.618 325.445L511.826 329.615L514.121 329.5ZM512.912 324.248L511.296 324.039L511.002 326.318L512.618 326.527L512.912 324.248ZM510.924 324.052L510.663 324.104L511.114 326.357L511.374 326.305L510.924 324.052ZM509.742 325.152L509.377 330.47L511.67 330.627L512.035 325.309L509.742 325.152ZM537.136 347.909L536.354 347.857L536.201 350.15L536.983 350.202L537.136 347.909ZM535.131 348.928L534.818 353.672L537.111 353.824L537.424 349.079L535.131 348.928ZM534.821 353.86L535.499 360.794L537.786 360.57L537.108 353.636L534.821 353.86ZM536.643 359.533H535.704V361.831H536.643V359.533ZM534.555 360.682V361.047H536.853V360.682H534.555ZM535.784 359.9L530.518 359.535L530.359 361.828L535.625 362.193L535.784 359.9ZM530.368 359.535L524.425 359.9L524.566 362.194L530.509 361.829L530.368 359.535ZM525.644 361.047V355.938H523.346V361.047H525.644ZM524.407 357.083L525.085 357.135L525.261 354.844L524.584 354.792L524.407 357.083ZM526.321 356.045L526.477 352.813L524.182 352.702L524.025 355.934L526.321 356.045ZM526.478 352.708L526.113 344.262L523.817 344.361L524.182 352.807L526.478 352.708ZM524.965 345.461H525.851V343.163H524.965V345.461ZM527 344.312V343.947H524.702V344.312H527ZM525.771 345.093L531.037 345.458L531.196 343.165L525.93 342.8L525.771 345.093ZM531.187 345.459L537.13 345.094L536.989 342.8L531.046 343.165L531.187 345.459ZM535.911 343.947V349.056H538.209V343.947H535.911ZM532.838 356.61L532.994 352.805L530.698 352.71L530.542 356.516L532.838 356.61ZM532.995 352.714L532.838 348.544L530.542 348.63L530.698 352.801L532.995 352.714ZM531.837 347.447L530.221 347.239L529.927 349.518L531.543 349.726L531.837 347.447ZM529.848 347.251L529.588 347.304L530.038 349.557L530.299 349.505L529.848 347.251ZM528.667 348.352L528.302 353.669L530.594 353.827L530.959 348.509L528.667 348.352ZM528.305 353.86L528.565 356.519L530.852 356.295L530.592 353.636L528.305 353.86ZM529.57 357.548L531.291 357.756L531.567 355.475L529.847 355.266L529.57 357.548ZM531.655 357.742L531.915 357.69L531.465 355.436L531.204 355.489L531.655 357.742Z" fill="#2E282D" mask="url(#path-6-outside-3_244_9258)"/>
<path d="M242.516 262.375L249.361 261.26V269.524L237.192 268.967L227.608 269.524V261.26L228.673 261.31L228.977 248.938L228.42 231.445H236.735L235.62 250.612L236.279 261.919L242.516 262.375ZM249.851 231.445H251.22V230.888L259.738 231.445L270.741 230.888V231.445H271.907L270.893 244.324L271.704 254.871H266.887V255.733L258.065 254.617L257.304 254.719L258.116 268.916H249.851L250.408 248.938L249.851 231.445ZM257.761 238.138L257.203 247.823L259.738 248.026L263.896 247.671L264.251 242.651L264.048 238.595L258.065 238.088L257.761 238.138ZM284.462 231.445H285.831V230.888L294.35 231.445L305.353 230.888V231.445H306.519L305.505 241.536L302.057 249.851L305.505 260.854L306.316 268.662H301.499V269.524L292.677 268.409L292.727 268.916H289.584L285.831 269.524V268.916H284.462L285.02 248.938L284.462 231.445ZM292.677 251.879L291.764 252.031L292.322 261.665L294.35 261.817L298.66 261.462L298.863 259.181L295.161 252.184L292.677 251.879ZM291.967 245.085L294.35 245.237L296.733 245.085L298.863 239.913L298.761 238.645L292.677 238.088L292.372 238.138L291.967 245.085ZM317.111 268.967L307.527 269.524V261.26L308.592 261.31L308.897 248.938L308.339 231.445H316.654L315.539 250.612L316.198 261.919L322.435 262.375L322.688 262.274L323.094 248.938L322.536 231.445H330.801L329.685 250.612L330.801 268.916H329.28V269.524L317.111 268.967ZM332.691 231.445H334.06V230.888L342.579 231.445L353.581 230.888V231.445H354.748L353.734 244.324L354.545 254.871H351.249L356.269 268.916H347.953L343.339 254.972L340.905 254.617L340.145 254.719L340.956 268.916H332.691L333.249 248.938L332.691 231.445ZM340.601 238.138L340.043 247.823L342.579 248.026L346.736 247.671L347.091 242.651L346.888 238.595L340.905 238.088L340.601 238.138ZM357.957 248.938L357.4 231.445H366.729L372.053 250.105L372.155 248.938L371.597 231.445H379.862L378.746 250.612L379.862 268.916H371.343L364.752 248.026L364.549 250.612L365.665 268.916H357.4L357.957 248.938ZM388.508 268.916L389.065 248.938L388.761 238.189L380.141 239.152V230.888L391.398 231.445L405.19 230.888V239.152L396.418 238.595L395.708 250.612L396.823 268.916H388.508Z" fill="white"/>
<path d="M293.011 188.557L291.939 206.196L293.939 215.48L277.3 214.694L265.302 215.48V213.052H261.589L262.803 196.413L272.729 196.77L273.015 205.054L274.943 205.411L283.441 204.839L283.584 193.77L279.514 196.127L264.446 190.414L265.302 173.132L264.803 161.063L277.514 161.849L294.153 161.063V165.777H295.582L293.011 188.557ZM283.798 188.129L283.87 171.918L275.157 171.204L274.586 171.275L274.229 183.273L279.514 187.915L283.798 188.129ZM310.56 204.768L319.344 205.411L319.701 205.268L320.272 186.486L319.772 171.775L311.06 171.204L310.631 171.275L309.631 188.843L310.56 204.768ZM301.49 161.063L313.416 161.849L332.055 161.063V172.704L330.484 172.632L329.556 188.843L331.127 214.623H328.984V215.48L311.845 214.694L298.348 215.48V203.84L299.848 203.911L300.276 186.486L299.491 161.849H301.49V161.063ZM366.665 161.849L376.02 161.063L360.524 186.486L344.599 214.623H335.315L352.168 188.843L366.665 161.849ZM350.026 184.487L342.813 183.987L334.672 184.487V177.488L335.672 177.56L335.815 173.132L335.386 161.563H336.529V161.063L343.742 161.563L351.883 161.063V168.133L350.883 167.99L350.383 174.489L351.311 183.987H350.026V184.487ZM341.456 174.489L341.814 178.202L344.242 178.417L344.527 178.345L344.813 173.132L344.527 167.419L342.313 167.133L341.956 167.205L341.456 174.489ZM377.806 199.841L376.734 199.769L376.306 206.268L377.234 215.766H375.949V216.266L368.736 215.766L360.595 216.266V209.267L361.524 209.338L361.738 204.911L361.238 193.342H362.452V192.842L369.665 193.342L377.806 192.842V199.841ZM370.45 210.124L370.664 204.911L370.45 199.198L368.236 198.912L367.879 198.984L367.379 206.268L367.736 209.91L370.093 210.195L370.45 210.124Z" fill="white"/>
<g filter="url(#filter1_d_244_9258)">
<rect x="639" y="301.764" width="447" height="93.5837" rx="20.0301" fill="white"/>
<rect x="639.455" y="302.219" width="446.09" height="92.6733" rx="19.5749" stroke="#C5C5C5" stroke-width="0.910458"/>
</g>
<path d="M768.38 356.726L773.854 357.126L774.077 357.037L774.433 345.333L774.121 336.165L768.692 335.809L768.425 335.853L767.802 346.801L768.38 356.726ZM762.728 329.489L770.16 329.979L781.776 329.489V336.744L780.797 336.699L780.218 346.801L781.197 362.867H779.862V363.401L769.181 362.912L760.77 363.401V356.147L761.705 356.192L761.972 345.333L761.482 329.979H762.728V329.489ZM803.345 329.979L809.175 329.489L799.517 345.333L789.593 362.867H783.807L794.31 346.801L803.345 329.979ZM792.975 344.087L788.48 343.775L783.407 344.087V339.725L784.03 339.77L784.119 337.011L783.852 329.801H784.564V329.489L789.059 329.801L794.132 329.489V333.895L793.509 333.806L793.198 337.856L793.776 343.775H792.975V344.087ZM787.635 337.856L787.857 340.17L789.37 340.304L789.548 340.259L789.726 337.011L789.548 333.45L788.169 333.272L787.946 333.317L787.635 337.856ZM810.287 353.655L809.62 353.61L809.353 357.66L809.931 363.579H809.13V363.891L804.635 363.579L799.562 363.891V359.529L800.14 359.574L800.274 356.815L799.962 349.605H800.719V349.294L805.214 349.605L810.287 349.294V353.655ZM805.703 360.063L805.837 356.815L805.703 353.254L804.324 353.076L804.101 353.121L803.79 357.66L804.012 359.93L805.481 360.108L805.703 360.063Z" fill="#E83030"/>
<path d="M821.527 329.979H822.729V329.489L830.205 329.979L839.863 329.489V329.979H840.886L839.996 341.283L840.708 350.54H836.48V351.296L828.737 350.317L828.069 350.406L828.781 362.867H821.527L822.017 345.333L821.527 329.979ZM828.47 335.853L827.98 344.354L830.205 344.532L833.855 344.22L834.166 339.814L833.988 336.254L828.737 335.809L828.47 335.853ZM841.997 329.979H843.199V329.489L850.675 329.979L860.333 329.489V329.979H861.356L860.466 341.283L861.178 350.54H858.285L862.691 362.867H855.393L851.343 350.629L849.207 350.317L848.539 350.406L849.251 362.867H841.997L842.487 345.333L841.997 329.979ZM848.94 335.853L848.45 344.354L850.675 344.532L854.325 344.22L854.636 339.814L854.458 336.254L849.207 335.809L848.94 335.853ZM863.328 363.401V356.147L864.262 356.192L864.529 345.333L864.04 329.979H865.286V329.489L872.718 329.979L882.42 329.489V336.744L871.249 335.809L870.982 335.853L870.537 343.419L872.718 343.553L879.038 343.063V350.317L871.249 349.338L870.493 349.516L870.938 356.726L876.412 357.126L882.42 356.147V363.401L871.739 362.912L863.328 363.401ZM891.465 335.809L891.109 335.853L890.886 343.33L902.591 346.623L901.923 357.616L903.169 363.401L892.8 362.912L885.323 363.401V361.888H883.009L883.766 351.519L889.952 351.741L890.13 356.904L891.331 357.126L896.627 356.77L896.716 349.872L884.789 347.78L885.323 337.011L885.012 329.489L892.934 329.979L903.303 329.489V332.427H904.193L903.481 342.663L897.25 341.995L897.072 336.254L891.465 335.809ZM911.775 362.867H904.521L905.233 358.016L904.833 358.061V350.807L906.346 350.896L907.191 345.333L907.992 336.477L906.746 336.744V329.489L912.265 329.979L920.988 329.489V336.744L920.498 336.699L921.166 346.801L921.967 350.896L923.88 350.807V358.061L923.257 358.016L924.147 362.867H916.849L916.359 357.482L912.131 357.215L911.775 362.867ZM912.799 346.801L912.532 351.296L915.736 351.163L915.158 345.333L914.223 339.058L912.799 346.801ZM937.909 357.126L943.917 356.147V363.401L933.236 362.912L924.825 363.401V356.147L925.759 356.192L926.026 345.333L925.537 329.979H932.835L931.856 346.801L932.435 356.726L937.909 357.126ZM944.121 363.401V356.147L945.056 356.192L945.323 345.333L944.833 329.979H946.079V329.489L953.511 329.979L963.213 329.489V336.744L952.043 335.809L951.776 335.853L951.331 343.419L953.511 343.553L959.831 343.063V350.317L952.043 349.338L951.286 349.516L951.731 356.726L957.205 357.126L963.213 356.147V363.401L952.532 362.912L944.121 363.401Z" fill="#2E282D"/>
<g filter="url(#filter2_d_244_9258)">
<rect x="639" y="406.357" width="447" height="92.4828" rx="20.0301" fill="white"/>
<rect x="639.455" y="406.813" width="446.09" height="91.5723" rx="19.5749" stroke="#C5C5C5" stroke-width="0.910458"/>
</g>
<path d="M724.349 460.04L729.823 460.441L730.045 460.352L730.401 448.647L730.09 439.479L724.66 439.123L724.393 439.168L723.77 450.116L724.349 460.04ZM718.697 432.804L726.129 433.293L737.744 432.804V440.058L736.765 440.013L736.187 450.116L737.166 466.182H735.831V466.716L725.15 466.226L716.739 466.716V459.462L717.673 459.506L717.94 448.647L717.451 433.293H718.697V432.804ZM759.313 433.293L765.143 432.804L755.486 448.647L745.561 466.182H739.776L750.279 450.116L759.313 433.293ZM748.944 447.401L744.449 447.09L739.375 447.401V443.04L739.999 443.084L740.088 440.325L739.82 433.115H740.533V432.804L745.027 433.115L750.101 432.804V437.21L749.478 437.121L749.166 441.171L749.745 447.09H748.944V447.401ZM743.603 441.171L743.826 443.485L745.339 443.618L745.517 443.574L745.695 440.325L745.517 436.765L744.137 436.587L743.915 436.631L743.603 441.171ZM766.256 456.969L765.588 456.925L765.321 460.975L765.9 466.894H765.099V467.205L760.604 466.894L755.53 467.205V462.844L756.109 462.888L756.242 460.129L755.931 452.92H756.687V452.608L761.182 452.92L766.256 452.608V456.969ZM761.672 463.378L761.805 460.129L761.672 456.569L760.292 456.391L760.07 456.435L759.758 460.975L759.981 463.244L761.449 463.422L761.672 463.378Z" fill="#E83030"/>
<path d="M783.504 466.182L783.993 448.647L783.726 439.212L776.161 440.058V432.804L786.04 433.293L798.145 432.804V440.058L790.446 439.568L789.823 450.116L790.802 466.182H783.504ZM798.261 466.716V459.462L799.196 459.506L799.463 448.647L798.973 433.293H800.22V432.804L807.652 433.293L817.353 432.804V440.058L806.183 439.123L805.916 439.168L805.471 446.734L807.652 446.867L813.971 446.378V453.632L806.183 452.653L805.427 452.831L805.872 460.04L811.346 460.441L817.353 459.462V466.716L806.673 466.226L798.261 466.716ZM825.152 466.182H817.898L818.61 461.331L818.21 461.375V454.121L819.723 454.21L820.569 448.647L821.37 439.791L820.123 440.058V432.804L825.642 433.293L834.365 432.804V440.058L833.875 440.013L834.543 450.116L835.344 454.21L837.257 454.121V461.375L836.634 461.331L837.524 466.182H830.226L829.736 460.797L825.508 460.53L825.152 466.182ZM826.176 450.116L825.909 454.611L829.113 454.477L828.535 448.647L827.6 442.372L826.176 450.116ZM845.812 466.182H838.558L839.047 448.647L838.558 433.293H846.746L851.597 450.116L854.891 458.171L858.139 450.116L862.946 433.293H871.134L870.645 448.647L871.134 466.182H863.88L864.859 450.116L864.726 447.846L858.896 466.182H850.796L845.011 447.846L844.833 450.116L845.812 466.182ZM888.896 466.182L889.385 448.647L889.118 439.212L881.552 440.058V432.804L891.432 433.293L903.537 432.804V440.058L895.838 439.568L895.215 450.116L896.194 466.182H888.896ZM924.659 440.058L923.68 440.013L923.101 450.116L924.081 466.182H922.745V466.716L912.065 466.226L903.653 466.716V459.462L904.588 459.506L904.855 448.647L904.365 433.293H905.612V432.804L913.044 433.293L924.659 432.804V440.058ZM916.96 460.352L917.316 448.647L917.004 439.479L911.575 439.123L911.308 439.168L910.685 450.116L911.263 460.04L916.737 460.441L916.96 460.352ZM926.087 466.182L926.577 448.647L926.087 433.293H933.341L932.585 446.422L933.564 446.467L938.548 433.293H945.802L939.038 450.116L945.802 466.182H938.548L933.965 452.519L933.297 452.386L932.54 452.519L933.341 466.182H926.087ZM946.071 466.716V459.462L947.005 459.506L947.273 448.647L946.783 433.293H948.029V432.804L955.461 433.293L965.163 432.804V440.058L953.993 439.123L953.726 439.168L953.281 446.734L955.461 446.867L961.781 446.378V453.632L953.993 452.653L953.236 452.831L953.681 460.04L959.155 460.441L965.163 459.462V466.716L954.482 466.226L946.071 466.716ZM966.865 448.647L966.375 433.293H974.564L979.237 449.671L979.326 448.647L978.836 433.293H986.09L985.111 450.116L986.09 466.182H978.614L972.828 447.846L972.65 450.116L973.629 466.182H966.375L966.865 448.647ZM995.504 439.123L995.148 439.168L994.925 446.645L1006.63 449.938L1005.96 460.93L1007.21 466.716L996.839 466.226L989.362 466.716V465.203H987.048L987.805 454.833L993.991 455.056L994.169 460.218L995.37 460.441L1000.67 460.085L1000.76 453.187L988.828 451.095L989.362 440.325L989.051 432.804L996.972 433.293L1007.34 432.804V435.741H1008.23L1007.52 445.977L1001.29 445.309L1001.11 439.568L995.504 439.123Z" fill="#2E282D"/>
<rect x="675.787" y="119.455" width="373.424" height="170.843" rx="19.5749" fill="#E83030" stroke="#C5C5C5" stroke-width="0.910458"/>
<path d="M740.87 181.58L741.387 163.045L741.105 153.072L733.108 153.966V146.298L743.551 146.815L756.347 146.298V153.966L748.208 153.448L747.55 164.598L748.585 181.58H740.87ZM778.674 153.966L777.639 153.919L777.027 164.598L778.062 181.58H776.651V182.145L765.361 181.627L756.47 182.145V174.477L757.458 174.524L757.74 163.045L757.222 146.815H758.539V146.298L766.396 146.815L778.674 146.298V153.966ZM770.535 175.417L770.912 163.045L770.582 153.354L764.843 152.978L764.561 153.025L763.902 164.598L764.514 175.088L770.3 175.512L770.535 175.417ZM786.534 181.58L787.052 163.045L786.77 153.072L778.772 153.966V146.298L789.216 146.815L802.011 146.298V153.966L793.873 153.448L793.214 164.598L794.249 181.58H786.534ZM808.876 181.58H801.208L801.96 176.452L801.537 176.499V168.831L803.136 168.926L804.03 163.045L804.877 153.684L803.56 153.966V146.298L809.393 146.815L818.614 146.298V153.966L818.096 153.919L818.802 164.598L819.649 168.926L821.671 168.831V176.499L821.013 176.452L821.954 181.58H814.239L813.721 175.888L809.252 175.606L808.876 181.58ZM809.958 164.598L809.675 169.349L813.063 169.208L812.451 163.045L811.463 156.412L809.958 164.598ZM836.5 175.512L842.851 174.477V182.145L831.561 181.627L822.67 182.145V174.477L823.657 174.524L823.94 163.045L823.422 146.815H831.137L830.102 164.598L830.714 175.088L836.5 175.512ZM862.059 152.978L861.683 153.025L861.448 160.928L873.82 164.409L873.115 176.029L874.432 182.145L863.471 181.627L855.568 182.145V180.545H853.121L853.921 169.584L860.46 169.819L860.648 175.276L861.918 175.512L867.516 175.135L867.61 167.844L855.003 165.633L855.568 154.248L855.238 146.298L863.612 146.815L874.573 146.298V149.403H875.514L874.761 160.223L868.175 159.517L867.987 153.448L862.059 152.978ZM885.357 181.627L876.466 182.145V174.477L877.453 174.524L877.736 163.045L877.218 146.815H884.933L883.898 164.598L884.51 175.088L890.296 175.512L890.531 175.417L890.908 163.045L890.39 146.815H898.058L897.023 164.598L898.058 181.58H896.647V182.145L885.357 181.627ZM899.812 146.815H901.082V146.298L908.985 146.815L919.194 146.298V146.815H920.276L919.335 158.764L920.088 168.549H915.618V169.349L907.433 168.314L906.727 168.408L907.48 181.58H899.812L900.33 163.045L899.812 146.815ZM907.151 153.025L906.633 162.01L908.985 162.198L912.843 161.869L913.172 157.212L912.984 153.448L907.433 152.978L907.151 153.025ZM921.45 146.815H922.72V146.298L930.623 146.815L940.832 146.298V146.815H941.914L940.973 158.764L941.725 168.549H937.256V169.349L929.071 168.314L928.365 168.408L929.118 181.58H921.45L921.967 163.045L921.45 146.815ZM928.789 153.025L928.271 162.01L930.623 162.198L934.481 161.869L934.81 157.212L934.622 153.448L929.071 152.978L928.789 153.025ZM956.542 175.512L962.893 174.477V182.145L951.603 181.627L942.711 182.145V174.477L943.699 174.524L943.982 163.045L943.464 146.815H951.179L950.144 164.598L950.756 175.088L956.542 175.512ZM962.409 158.2L960.104 146.815H967.772L968.854 156.647L970.924 167.797L974.17 146.815H981.838L979.25 156.647L977.557 174.43H974.217L974.781 181.58H967.113L967.396 174.43H964.385L962.409 158.2Z" fill="white"/>
<g filter="url(#filter3_d_244_9258)">
<rect x="639" y="198.271" width="447" height="92.4828" rx="20.0301" fill="white"/>
<rect x="639.455" y="198.727" width="446.09" height="91.5723" rx="19.5749" stroke="#C5C5C5" stroke-width="0.910458"/>
</g>
<path d="M727.529 235.886L726.49 226.037H728.668V225.493L736.933 226.037L747.723 225.493V226.037H748.861L747.822 235.886L744.456 243.954L747.822 254.744L748.614 262.366H743.961V263.207L735.3 262.118L734.805 262.217V262.366H733.963L728.668 263.207V262.366H726.688L727.529 254.744L730.845 243.954L727.529 235.886ZM733.963 253.11L734.211 255.486L736.933 255.684L741.14 255.338L741.338 253.11L738.517 247.716L737.23 246.973L733.963 253.11ZM733.963 234.303L736.29 239.846L736.933 239.5L738.863 240.242L741.338 234.303L741.239 233.065L735.3 232.521L734.062 232.719L733.963 234.303ZM751.498 254.595H760.407L753.231 268.553H749.816L751.498 254.595ZM762.813 235.886L761.774 226.037H763.951V225.493L772.217 226.037L783.007 225.493V226.037H784.145L783.106 235.886L779.74 243.954L783.106 254.744L783.898 262.366H779.245V263.207L770.584 262.118L770.089 262.217V262.366H769.247L763.951 263.207V262.366H761.972L762.813 254.744L766.129 243.954L762.813 235.886ZM769.247 253.11L769.495 255.486L772.217 255.684L776.424 255.338L776.622 253.11L773.801 247.716L772.514 246.973L769.247 253.11ZM769.247 234.303L771.574 239.846L772.217 239.5L774.147 240.242L776.622 234.303L776.523 233.065L770.584 232.521L769.346 232.719L769.247 234.303ZM786.98 235.886L785.941 226.037H788.119V225.493L796.384 226.037L807.174 225.493V226.037H808.312L807.273 235.886L803.907 243.954L807.273 254.744L808.065 262.366H803.412V263.207L794.751 262.118L794.256 262.217V262.366H793.414L788.119 263.207V262.366H786.139L786.98 254.744L790.296 243.954L786.98 235.886ZM793.414 253.11L793.662 255.486L796.384 255.684L800.591 255.338L800.789 253.11L797.968 247.716L796.681 246.973L793.414 253.11ZM793.414 234.303L795.741 239.846L796.384 239.5L798.314 240.242L800.789 234.303L800.69 233.065L794.751 232.521L793.513 232.719L793.414 234.303ZM811.147 235.886L810.108 226.037H812.286V225.493L820.551 226.037L831.341 225.493V226.037H832.479L831.44 235.886L828.074 243.954L831.44 254.744L832.232 262.366H827.579V263.207L818.918 262.118L818.423 262.217V262.366H817.581L812.286 263.207V262.366H810.306L811.147 254.744L814.463 243.954L811.147 235.886ZM817.581 253.11L817.829 255.486L820.551 255.684L824.758 255.338L824.956 253.11L822.135 247.716L820.848 246.973L817.581 253.11ZM817.581 234.303L819.908 239.846L820.551 239.5L822.481 240.242L824.956 234.303L824.857 233.065L818.918 232.521L817.68 232.719L817.581 234.303ZM835.116 254.595H844.025L836.849 268.553H833.433L835.116 254.595ZM846.431 235.886L845.392 226.037H847.569V225.493L855.835 226.037L866.625 225.493V226.037H867.763L866.724 235.886L863.358 243.954L866.724 254.744L867.516 262.366H862.863V263.207L854.202 262.118L853.707 262.217V262.366H852.865L847.569 263.207V262.366H845.59L846.431 254.744L849.747 243.954L846.431 235.886ZM852.865 253.11L853.113 255.486L855.835 255.684L860.042 255.338L860.24 253.11L857.419 247.716L856.132 246.973L852.865 253.11ZM852.865 234.303L855.191 239.846L855.835 239.5L857.765 240.242L860.24 234.303L860.141 233.065L854.202 232.521L852.964 232.719L852.865 234.303ZM870.598 235.886L869.559 226.037H871.736V225.493L880.002 226.037L890.792 225.493V226.037H891.93L890.891 235.886L887.525 243.954L890.891 254.744L891.683 262.366H887.03V263.207L878.369 262.118L877.874 262.217V262.366H877.032L871.736 263.207V262.366H869.757L870.598 254.744L873.914 243.954L870.598 235.886ZM877.032 253.11L877.28 255.486L880.002 255.684L884.209 255.338L884.407 253.11L881.586 247.716L880.299 246.973L877.032 253.11ZM877.032 234.303L879.359 239.846L880.002 239.5L881.932 240.242L884.407 234.303L884.308 233.065L878.369 232.521L877.131 232.719L877.032 234.303ZM894.765 235.886L893.726 226.037H895.903V225.493L904.169 226.037L914.959 225.493V226.037H916.097L915.058 235.886L911.692 243.954L915.058 254.744L915.85 262.366H911.197V263.207L902.536 262.118L902.041 262.217V262.366H901.199L895.903 263.207V262.366H893.924L894.765 254.744L898.081 243.954L894.765 235.886ZM901.199 253.11L901.447 255.486L904.169 255.684L908.376 255.338L908.574 253.11L905.753 247.716L904.466 246.973L901.199 253.11ZM901.199 234.303L903.526 239.846L904.169 239.5L906.099 240.242L908.574 234.303L908.475 233.065L902.536 232.521L901.298 232.719L901.199 234.303ZM918.734 254.595H927.643L920.466 268.553H917.051L918.734 254.595ZM930.049 235.886L929.01 226.037H931.187V225.493L939.453 226.037L950.243 225.493V226.037H951.381L950.342 235.886L946.976 243.954L950.342 254.744L951.133 262.366H946.481V263.207L937.82 262.118L937.325 262.217V262.366H936.483L931.187 263.207V262.366H929.208L930.049 254.744L933.365 243.954L930.049 235.886ZM936.483 253.11L936.731 255.486L939.453 255.684L943.66 255.338L943.858 253.11L941.037 247.716L939.75 246.973L936.483 253.11ZM936.483 234.303L938.809 239.846L939.453 239.5L941.383 240.242L943.858 234.303L943.759 233.065L937.82 232.521L936.582 232.719L936.483 234.303ZM954.216 235.886L953.177 226.037H955.354V225.493L963.62 226.037L974.41 225.493V226.037H975.548L974.509 235.886L971.143 243.954L974.509 254.744L975.3 262.366H970.648V263.207L961.987 262.118L961.492 262.217V262.366H960.65L955.354 263.207V262.366H953.375L954.216 254.744L957.532 243.954L954.216 235.886ZM960.65 253.11L960.898 255.486L963.62 255.684L967.827 255.338L968.025 253.11L965.204 247.716L963.917 246.973L960.65 253.11ZM960.65 234.303L962.976 239.846L963.62 239.5L965.55 240.242L968.025 234.303L967.926 233.065L961.987 232.521L960.749 232.719L960.65 234.303ZM978.383 235.886L977.344 226.037H979.521V225.493L987.787 226.037L998.577 225.493V226.037H999.715L998.676 235.886L995.31 243.954L998.676 254.744L999.467 262.366H994.815V263.207L986.154 262.118L985.659 262.217V262.366H984.817L979.521 263.207V262.366H977.542L978.383 254.744L981.699 243.954L978.383 235.886ZM984.817 253.11L985.065 255.486L987.787 255.684L991.994 255.338L992.192 253.11L989.371 247.716L988.084 246.973L984.817 253.11ZM984.817 234.303L987.143 239.846L987.787 239.5L989.717 240.242L992.192 234.303L992.093 233.065L986.154 232.521L984.916 232.719L984.817 234.303Z" fill="#2E282D"/>
<defs>
<filter id="filter0_d_244_9258" x="293.476" y="285.931" width="296.2" height="220.602" filterUnits="userSpaceOnUse" color-interpolation-filters="sRGB">
<feFlood flood-opacity="0" result="BackgroundImageFix"/>
<feColorMatrix in="SourceAlpha" type="matrix" values="0 0 0 0 0 0 0 0 0 0 0 0 0 0 0 0 0 0 127 0" result="hardAlpha"/>
<feOffset dx="-7.39468" dy="10.5638"/>
<feGaussianBlur stdDeviation="8.66233"/>
<feComposite in2="hardAlpha" operator="out"/>
<feColorMatrix type="matrix" values="0 0 0 0 0 0 0 0 0 0 0 0 0 0 0 0 0 0 0.25 0"/>
<feBlend mode="normal" in2="BackgroundImageFix" result="effect1_dropShadow_244_9258"/>
<feBlend mode="normal" in="SourceGraphic" in2="effect1_dropShadow_244_9258" result="shape"/>
</filter>
<filter id="filter1_d_244_9258" x="639" y="301.764" width="451.573" height="98.1565" filterUnits="userSpaceOnUse" color-interpolation-filters="sRGB">
<feFlood flood-opacity="0" result="BackgroundImageFix"/>
<feColorMatrix in="SourceAlpha" type="matrix" values="0 0 0 0 0 0 0 0 0 0 0 0 0 0 0 0 0 0 127 0" result="hardAlpha"/>
<feOffset dx="4.57252" dy="4.57252"/>
<feComposite in2="hardAlpha" operator="out"/>
<feColorMatrix type="matrix" values="0 0 0 0 0.870833 0 0 0 0 0.843125 0 0 0 0 0.820035 0 0 0 1 0"/>
<feBlend mode="normal" in2="BackgroundImageFix" result="effect1_dropShadow_244_9258"/>
<feBlend mode="normal" in="SourceGraphic" in2="effect1_dropShadow_244_9258" result="shape"/>
</filter>
<filter id="filter2_d_244_9258" x="639" y="406.357" width="451.573" height="97.0549" filterUnits="userSpaceOnUse" color-interpolation-filters="sRGB">
<feFlood flood-opacity="0" result="BackgroundImageFix"/>
<feColorMatrix in="SourceAlpha" type="matrix" values="0 0 0 0 0 0 0 0 0 0 0 0 0 0 0 0 0 0 127 0" result="hardAlpha"/>
<feOffset dx="4.57252" dy="4.57252"/>
<feComposite in2="hardAlpha" operator="out"/>
<feColorMatrix type="matrix" values="0 0 0 0 0.870833 0 0 0 0 0.843125 0 0 0 0 0.820035 0 0 0 1 0"/>
<feBlend mode="normal" in2="BackgroundImageFix" result="effect1_dropShadow_244_9258"/>
<feBlend mode="normal" in="SourceGraphic" in2="effect1_dropShadow_244_9258" result="shape"/>
</filter>
<filter id="filter3_d_244_9258" x="639" y="198.271" width="451.573" height="97.0549" filterUnits="userSpaceOnUse" color-interpolation-filters="sRGB">
<feFlood flood-opacity="0" result="BackgroundImageFix"/>
<feColorMatrix in="SourceAlpha" type="matrix" values="0 0 0 0 0 0 0 0 0 0 0 0 0 0 0 0 0 0 127 0" result="hardAlpha"/>
<feOffset dx="4.57252" dy="4.57252"/>
<feComposite in2="hardAlpha" operator="out"/>
<feColorMatrix type="matrix" values="0 0 0 0 0.870833 0 0 0 0 0.843125 0 0 0 0 0.820035 0 0 0 1 0"/>
<feBlend mode="normal" in2="BackgroundImageFix" result="effect1_dropShadow_244_9258"/>
<feBlend mode="normal" in="SourceGraphic" in2="effect1_dropShadow_244_9258" result="shape"/>
</filter>
</defs>
</svg>
